<?xml version="1.0" standalone="no"?>
<!DOCTYPE svg PUBLIC "-//W3C//DTD SVG 20010904//EN"
 "http://www.w3.org/TR/2001/REC-SVG-20010904/DTD/svg10.dtd">
<svg version="1.0" xmlns="http://www.w3.org/2000/svg"
 width="1648.000000pt" height="2198.000000pt" viewBox="0 0 1648.000000 2198.000000"
 preserveAspectRatio="xMidYMid meet">

<g transform="translate(0.000000,2198.000000) scale(0.100000,-0.100000)"
fill="#000000" stroke="none">
<path d="M0 13305 c0 -4771 3 -8675 8 -8675 4 0 23 18 41 39 23 27 46 42 70
46 20 4 38 10 41 13 7 9 93 52 103 52 5 0 21 8 35 18 15 11 54 29 87 42 33 13
64 28 69 32 15 12 26 10 26 -6 0 -15 35 -11 58 7 7 5 15 7 19 4 3 -4 15 0 27
8 11 8 28 15 38 15 10 0 18 5 18 10 0 6 7 10 15 10 8 0 15 3 15 8 0 4 29 20
65 36 36 16 65 35 65 42 0 8 4 14 10 14 5 0 20 11 33 24 16 16 32 23 45 19 11
-2 23 0 26 6 4 6 22 11 39 11 24 0 28 3 17 10 -12 8 -9 10 13 10 15 0 27 4 27
10 0 5 16 16 35 24 19 8 38 22 41 31 7 17 34 21 34 4 0 -6 6 -9 13 -6 6 2 11
10 9 17 -1 6 6 14 17 17 11 3 22 11 25 18 7 18 64 45 97 45 15 0 31 5 34 10 3
6 15 10 26 10 11 0 19 7 19 18 0 21 52 45 82 38 13 -3 17 -3 11 0 -7 3 -13 9
-13 14 0 12 67 33 80 25 5 -3 22 6 36 20 14 14 31 24 37 22 7 -2 23 4 36 14
13 11 30 19 37 19 8 0 14 5 14 10 0 6 6 10 14 10 8 0 16 7 20 15 3 8 16 15 29
15 14 0 30 7 38 16 17 21 84 54 109 54 18 0 58 17 120 52 8 4 22 11 30 15 8 4
22 15 31 25 24 27 79 44 89 28 5 -8 15 -10 26 -5 13 5 15 9 6 12 -24 9 -1 23
38 23 21 0 42 4 45 10 3 5 33 10 66 10 33 0 59 4 59 10 0 15 77 12 84 -2 3 -9
9 -7 20 6 14 17 32 20 156 23 92 2 140 0 140 -7 0 -5 5 -10 11 -10 6 0 8 9 4
20 -5 17 -2 20 25 20 27 0 30 -3 25 -20 -4 -11 -2 -20 4 -20 6 0 11 6 11 13 0
18 161 37 184 22 11 -7 22 -6 36 3 11 7 20 8 20 3 0 -9 110 -21 193 -20 27 0
47 -5 47 -11 0 -6 22 -10 58 -8 31 1 67 -4 79 -10 14 -8 69 -13 143 -13 70 -1
120 -5 120 -11 0 -5 24 -8 53 -7 28 1 64 -3 78 -9 15 -6 30 -8 33 -5 3 4 12
-2 20 -12 12 -17 17 -18 41 -7 24 11 30 10 50 -8 12 -11 32 -20 46 -20 46 0
79 -22 80 -55 1 -24 3 -25 6 -8 6 29 43 31 50 3 6 -22 23 -28 23 -8 0 9 3 9
12 0 7 -7 24 -12 38 -12 15 0 37 -11 50 -25 15 -16 30 -23 42 -19 13 4 18 0
18 -14 0 -16 9 -22 43 -27 23 -4 52 -16 64 -27 12 -11 27 -17 33 -13 7 4 18
-2 26 -14 10 -13 26 -21 45 -21 18 0 29 -5 29 -14 0 -8 8 -17 17 -20 23 -7 83
-64 83 -77 0 -6 9 -8 20 -4 15 5 21 0 26 -19 3 -14 12 -26 20 -26 8 0 14 -7
14 -16 0 -11 6 -13 19 -9 14 4 21 0 26 -15 3 -11 10 -20 15 -20 5 0 17 -14 26
-31 12 -25 21 -30 40 -26 19 3 24 0 24 -15 0 -12 32 -51 75 -93 41 -41 75 -78
75 -84 0 -6 7 -11 15 -11 8 0 19 -8 24 -19 6 -10 22 -22 36 -25 13 -3 31 -19
39 -34 8 -15 26 -38 40 -51 15 -14 22 -27 16 -31 -12 -7 47 -53 68 -53 8 0 12
-7 9 -18 -3 -10 1 -20 9 -23 8 -3 13 -16 11 -28 -2 -19 3 -24 30 -26 28 -3 32
-7 38 -44 5 -25 19 -54 36 -72 16 -17 29 -37 29 -43 0 -7 6 -13 13 -13 8 0 22
-18 32 -40 10 -22 22 -40 27 -40 4 0 8 -9 8 -19 0 -10 7 -22 16 -25 11 -4 14
-13 10 -31 -4 -14 -2 -25 4 -25 5 0 10 5 10 10 0 6 4 10 9 10 5 0 12 -18 16
-40 4 -22 12 -40 18 -40 7 0 25 -18 41 -40 18 -24 38 -40 50 -40 21 -1 21 -1
2 -15 -17 -13 -17 -15 -3 -15 22 0 67 -46 67 -69 0 -11 7 -21 15 -25 8 -3 15
-12 15 -21 0 -8 3 -15 8 -15 4 0 16 -17 27 -37 10 -21 34 -64 53 -96 19 -32
35 -71 36 -87 1 -16 10 -38 20 -48 16 -18 16 -21 1 -36 -15 -15 -14 -16 9 -16
24 0 25 -2 14 -21 -11 -17 -10 -22 2 -32 11 -9 16 -37 18 -107 2 -52 7 -99 12
-104 7 -7 10 2 10 22 0 32 13 42 26 20 4 -6 2 -14 -4 -16 -17 -5 -16 -82 2
-82 9 0 16 -24 23 -82 7 -58 10 -70 12 -40 2 70 18 47 26 -38 6 -67 12 -86 36
-116 16 -20 27 -40 24 -43 -2 -4 9 -22 25 -40 17 -18 30 -39 30 -47 0 -7 9
-19 20 -26 11 -7 20 -21 20 -30 0 -10 7 -18 15 -18 16 0 65 -46 65 -61 0 -18
52 -79 66 -79 8 0 14 -9 14 -20 0 -10 11 -31 26 -45 14 -14 22 -30 19 -35 -3
-5 -1 -19 5 -31 8 -13 11 -71 11 -155 -2 -119 0 -134 15 -134 27 0 14 -90 -19
-130 -15 -17 -27 -36 -27 -42 0 -15 -55 -63 -93 -82 -42 -19 -61 -41 -54 -60
6 -14 -44 -66 -63 -66 -5 0 -17 -11 -26 -26 -9 -14 -23 -23 -29 -20 -7 2 -27
-6 -45 -19 -18 -13 -39 -21 -47 -18 -9 4 -22 -1 -29 -12 -8 -11 -21 -16 -33
-12 -11 2 -41 -6 -68 -19 -26 -13 -55 -24 -64 -24 -8 0 -24 -7 -35 -15 -10 -8
-31 -15 -46 -15 -16 0 -28 -4 -28 -8 0 -4 -17 -9 -37 -10 -97 -5 -132 -13
-126 -29 4 -10 2 -14 -5 -9 -6 3 -23 -5 -38 -19 -28 -26 -44 -32 -44 -15 0 21
-37 9 -58 -20 -13 -16 -27 -30 -33 -30 -6 0 -24 -9 -40 -21 -16 -11 -29 -16
-29 -10 0 18 -18 12 -44 -14 -14 -14 -33 -25 -42 -25 -9 0 -25 -11 -36 -25
-14 -18 -29 -25 -54 -25 -19 0 -34 -4 -34 -10 0 -5 9 -10 19 -10 11 0 23 -4
26 -10 3 -6 -4 -10 -17 -10 -23 0 -130 -49 -136 -62 -2 -5 -8 -8 -14 -8 -6 0
-19 -11 -30 -25 -11 -14 -25 -25 -31 -25 -19 0 -87 -52 -87 -66 0 -12 -4 -12
-20 -2 -16 11 -22 9 -34 -7 -8 -11 -18 -20 -23 -21 -58 -5 -82 -18 -88 -45 -8
-35 -21 -45 -40 -29 -10 9 -15 7 -20 -10 -3 -11 -11 -18 -16 -15 -5 4 -25 -6
-44 -21 -19 -14 -35 -21 -35 -15 0 6 -4 11 -10 11 -5 0 -10 -9 -10 -20 0 -11
-4 -20 -10 -20 -5 0 -10 9 -10 20 0 36 -18 21 -25 -21 -5 -29 -10 -37 -16 -28
-7 11 -12 12 -29 2 -11 -7 -27 -13 -35 -13 -8 0 -15 -4 -15 -9 0 -5 -17 -15
-37 -22 -21 -6 -40 -15 -43 -18 -10 -12 -50 -31 -65 -31 -8 0 -15 -5 -15 -11
0 -6 -18 -9 -45 -8 -24 2 -47 0 -51 -4 -4 -4 -15 -7 -24 -7 -10 0 -34 -11 -54
-25 -23 -15 -51 -25 -74 -25 -20 0 -46 -7 -56 -15 -11 -8 -29 -12 -42 -9 -15
4 -25 0 -32 -11 -7 -14 -13 -15 -31 -5 -19 10 -26 9 -42 -6 -14 -13 -33 -17
-64 -15 -27 1 -45 -2 -45 -8 0 -7 -41 -11 -120 -11 -73 0 -120 -4 -120 -10 0
-5 -18 -10 -40 -10 -30 0 -40 -4 -40 -16 0 -8 -5 -12 -11 -8 -6 3 -9 15 -6 25
4 15 0 19 -23 19 -23 0 -27 -4 -23 -19 3 -10 0 -22 -6 -25 -6 -4 -11 -1 -11 7
0 10 -8 13 -25 9 -17 -3 -27 1 -31 12 -8 20 -24 21 -24 2 0 -12 -25 -13 -156
-9 -126 5 -158 3 -164 -8 -5 -7 -13 -10 -17 -5 -4 5 -2 11 5 13 17 6 15 23 -3
23 -8 0 -15 -4 -15 -10 0 -5 -11 -10 -25 -10 -14 0 -25 5 -25 10 0 14 -27 12
-34 -2 -5 -10 -7 -10 -12 0 -4 9 -42 12 -140 12 -121 0 -134 2 -134 18 0 9 -9
28 -20 42 l-20 25 -19 -24 -19 -24 -6 21 c-6 17 -15 22 -41 22 -18 0 -35 5
-37 11 -3 9 -9 9 -25 0 -29 -15 -53 -14 -53 3 0 8 -15 17 -36 21 -23 4 -38 13
-41 25 -4 16 -8 17 -25 7 -16 -10 -22 -9 -34 8 -9 11 -20 19 -25 17 -6 -1 -42
13 -82 32 -53 26 -74 32 -80 23 -6 -8 -7 -6 -3 5 5 17 -17 28 -116 58 -21 6
-38 17 -38 24 0 7 -28 25 -62 40 -35 16 -85 44 -113 64 -27 19 -55 35 -62 35
-7 0 -13 5 -13 11 0 18 -47 35 -59 23 -11 -11 -15 0 -12 34 1 9 -13 21 -34 29
-19 8 -35 21 -35 29 0 13 -2 13 -9 3 -6 -10 -13 -3 -25 23 -10 20 -32 44 -48
54 -17 9 -51 33 -75 54 -53 45 -136 98 -180 116 -17 7 -39 21 -49 32 -9 10
-25 19 -36 19 -17 0 -57 18 -68 31 -3 3 -22 12 -42 18 -21 7 -38 17 -38 22 0
5 -18 9 -40 9 -27 0 -40 4 -40 14 0 7 -13 16 -30 19 -16 4 -45 16 -63 29 -33
21 -34 23 -46 127 -8 68 -10 154 -5 238 6 117 5 133 -9 133 -9 0 -25 21 -39
50 -13 27 -29 49 -35 50 -18 0 -16 40 2 40 8 0 15 5 15 10 0 6 -7 10 -15 10
-8 0 -15 6 -15 13 -1 6 -15 21 -33 32 -18 11 -36 30 -42 42 -5 13 -22 24 -41
28 -36 6 -73 44 -93 94 -14 33 -26 39 -34 19 -3 -9 -14 -5 -33 13 -16 15 -39
32 -51 38 -13 6 -23 18 -23 26 0 7 -11 27 -25 43 -28 33 -31 48 -13 55 11 4
11 7 0 18 -6 7 -12 23 -12 36 0 13 -6 23 -14 23 -10 0 -16 22 -21 80 -6 69
-10 80 -26 80 -24 0 -24 22 -1 44 11 9 24 34 31 56 6 22 20 45 30 52 20 14 31
83 18 105 -4 6 -4 18 -1 26 3 8 1 18 -4 21 -6 3 -8 14 -5 24 3 14 -2 18 -24
17 -22 0 -32 8 -48 37 -11 20 -27 39 -37 41 -10 3 -22 17 -28 31 -5 14 -14 26
-20 26 -7 0 -10 -575 -10 -1790 l0 -1790 8240 0 8240 0 0 1895 0 1895 -40 0
c-22 0 -40 -5 -40 -11 0 -6 -8 -8 -18 -5 -18 6 -62 -33 -62 -54 0 -6 -4 -10
-9 -10 -5 0 -23 -12 -40 -26 -24 -20 -31 -22 -31 -10 0 20 -14 21 -30 1 -9
-10 -9 -15 -1 -15 6 0 11 -5 11 -11 0 -8 -4 -8 -15 1 -18 15 -35 5 -35 -23 0
-21 -1 -21 -13 3 -20 39 -40 35 -61 -12 -13 -31 -20 -38 -23 -25 -5 21 -33 23
-33 2 0 -18 -26 -20 -33 -2 -3 6 -6 2 -6 -10 -1 -29 -94 -62 -123 -44 -27 17
-38 13 -38 -13 0 -19 -7 -26 -30 -31 -16 -4 -34 -4 -40 0 -5 3 -10 -1 -10 -9
0 -11 -9 -16 -30 -16 -25 0 -30 -4 -30 -25 0 -31 -17 -33 -22 -3 l-3 23 -22
-23 c-13 -12 -35 -22 -50 -22 -14 0 -34 -7 -44 -16 -11 -10 -40 -17 -76 -19
-32 -1 -98 -7 -147 -13 -56 -7 -96 -7 -107 -1 -24 12 -29 11 -29 -6 0 -8 8
-15 18 -16 11 0 13 -2 4 -6 -8 -3 -27 4 -43 16 -35 26 -42 26 -34 1 6 -19 2
-20 -72 -20 -50 0 -84 -5 -91 -12 -10 -10 -15 -10 -21 1 -9 13 -74 12 -190 -5
-30 -4 -46 -2 -51 6 -6 10 -40 13 -130 11 -84 -2 -126 1 -136 10 -11 9 -18 9
-26 1 -15 -15 -108 -16 -108 -2 0 6 -18 10 -40 10 -22 0 -40 -4 -40 -10 0 -5
-18 -10 -40 -10 -33 0 -40 3 -40 20 0 18 -7 20 -82 21 -46 1 -93 0 -105 -1
-13 -1 -27 7 -35 19 -13 22 -38 29 -38 11 0 -5 -9 -10 -20 -10 -11 0 -20 5
-20 10 0 6 -28 10 -65 10 -51 0 -72 5 -95 21 -22 17 -36 20 -64 15 -29 -6 -36
-4 -36 9 0 11 -11 15 -40 15 -22 0 -40 5 -40 10 0 6 -18 10 -40 10 -33 0 -40
3 -40 20 0 17 -7 20 -45 20 -34 0 -47 4 -52 18 -10 26 -33 40 -87 53 -33 8
-50 18 -53 30 -4 15 -15 19 -52 19 -43 0 -47 2 -59 32 -11 31 -12 31 -32 13
-20 -18 -24 -15 -21 18 2 11 -5 17 -17 17 -11 0 -25 7 -32 15 -7 8 -19 15 -27
15 -8 0 -24 10 -37 23 -12 12 -42 31 -67 41 -24 11 -48 25 -54 31 -5 6 -23 15
-39 19 -17 4 -47 21 -68 38 -21 16 -52 31 -68 32 -17 1 -36 8 -42 14 -9 9 -4
12 23 12 l34 1 -28 15 c-16 8 -40 17 -55 19 -15 1 -30 3 -34 4 -5 0 -8 9 -8
20 0 14 -10 21 -35 25 -36 7 -46 22 -20 32 26 10 17 24 -16 24 -20 0 -28 4
-23 12 5 7 0 9 -14 6 -12 -3 -20 -2 -19 2 3 12 -64 60 -74 54 -5 -3 -9 2 -9
10 0 9 -4 16 -9 16 -4 0 -20 26 -34 58 -15 31 -27 49 -27 39 0 -17 -4 -16 -31
7 -17 14 -35 26 -40 26 -5 0 -9 7 -9 15 0 8 -8 15 -17 15 -26 1 -63 35 -63 59
0 12 -6 21 -13 21 -8 0 -22 18 -32 40 -10 22 -22 40 -27 40 -4 0 -8 9 -8 19 0
10 -7 21 -15 25 -8 3 -15 12 -15 21 0 8 -4 15 -9 15 -16 0 -71 57 -71 74 0 8
-8 31 -17 51 -13 26 -23 35 -42 35 -25 1 -71 30 -71 46 0 4 -8 13 -17 20 -12
9 -13 13 -5 14 10 0 10 5 2 20 -6 11 -15 18 -20 15 -10 -6 -40 45 -40 68 0 8
-7 17 -15 21 -18 7 -20 36 -2 36 11 1 -30 43 -50 51 -4 2 -21 28 -36 57 -23
42 -25 52 -13 52 9 0 16 9 16 20 0 11 -4 20 -10 20 -5 0 -10 -4 -10 -10 0 -27
-17 -5 -30 38 -7 26 -19 52 -26 57 -6 6 -14 21 -17 35 -27 121 -42 160 -59
160 -19 0 -82 64 -83 84 0 21 -36 76 -49 76 -9 0 -17 25 -25 75 -7 41 -17 75
-22 75 -5 0 -9 -7 -9 -16 0 -8 -4 -12 -10 -9 -5 3 -10 17 -10 30 0 13 -4 26
-9 30 -5 3 -13 20 -17 37 -3 18 -13 43 -22 56 -8 12 -16 33 -17 45 -1 12 -3
26 -4 31 0 4 -10 6 -21 3 -18 -4 -19 -1 -14 38 5 33 3 43 -10 48 -9 4 -16 13
-16 22 0 8 -7 15 -16 15 -12 0 -15 10 -13 46 3 36 -1 48 -15 56 -13 7 -16 17
-11 35 5 21 3 24 -13 19 -15 -5 -21 2 -32 35 -8 23 -22 44 -31 46 -10 3 -23
19 -29 36 -15 42 -53 121 -61 127 -16 13 -30 54 -25 74 7 28 -8 51 -28 43 -11
-5 -16 -1 -16 14 0 11 -7 27 -15 36 -9 8 -19 28 -22 44 -3 16 -9 29 -14 29 -4
0 -13 26 -19 57 -7 32 -18 62 -25 68 -12 10 -19 33 -32 100 -3 17 -12 36 -21
42 -14 12 -14 14 -1 25 21 18 14 108 -8 108 -13 0 -14 12 -8 78 4 42 11 79 15
82 4 3 15 20 25 39 14 28 15 35 3 42 -10 7 -6 16 20 37 35 29 40 42 18 42 -12
0 -11 8 6 40 13 24 29 40 40 40 13 0 19 10 24 40 5 29 11 40 24 40 22 0 62 64
54 85 -4 8 -1 15 5 15 6 0 11 -5 11 -11 0 -6 14 1 31 16 18 14 38 24 45 21 7
-3 16 4 19 15 7 20 25 27 25 9 0 -5 5 -10 11 -10 6 0 8 7 5 15 -4 11 3 19 20
26 15 5 37 18 50 28 13 11 33 17 43 14 10 -3 22 0 25 6 4 6 16 11 27 11 10 0
19 4 19 9 0 5 17 15 38 22 20 6 39 15 42 18 10 12 50 31 65 31 8 0 15 4 15 10
0 5 18 15 40 21 22 7 40 15 40 19 0 4 10 11 23 14 21 7 21 8 3 15 -17 7 -17 9
9 29 15 12 34 22 42 22 8 0 30 12 49 26 19 15 34 21 34 14 0 -6 14 0 31 14 17
14 35 26 40 26 5 0 9 7 9 15 0 8 6 15 14 15 8 0 17 7 20 15 3 9 21 22 40 30
37 16 56 35 34 35 -17 1 21 30 39 30 7 0 13 -7 13 -15 0 -27 17 -15 35 25 14
30 24 40 41 40 22 0 82 28 112 52 18 15 15 28 -8 28 -11 0 -20 -4 -20 -10 0
-5 -18 -13 -40 -16 -22 -4 -40 -10 -40 -15 0 -5 -25 -9 -55 -9 -30 0 -55 2
-55 5 0 19 45 45 76 45 20 0 48 8 62 19 15 10 51 26 80 35 30 10 52 24 52 32
0 8 6 14 13 14 6 0 26 13 43 30 23 20 52 34 100 45 64 14 85 20 139 41 11 4
25 6 32 5 6 -1 14 3 18 9 3 5 15 10 26 10 10 0 19 4 19 9 0 5 19 16 43 24 28
9 42 20 41 31 -2 19 1 20 24 5 18 -11 17 -12 110 46 17 11 32 26 32 33 0 7 14
12 39 12 29 0 40 4 44 19 3 13 21 22 56 31 28 6 54 16 57 21 3 5 15 9 26 9 12
0 40 9 63 20 27 13 64 21 103 21 45 1 66 6 81 20 12 11 35 19 56 19 19 0 35 4
35 9 0 5 39 12 88 16 48 3 123 15 167 26 91 23 282 48 366 49 74 0 179 -11
175 -19 -2 -3 16 -4 40 -2 29 2 44 -1 44 -9 0 -8 16 -11 48 -9 26 2 64 -3 85
-10 22 -7 53 -10 72 -7 20 4 35 2 37 -4 2 -6 54 -13 128 -17 104 -5 129 -9
146 -25 13 -11 46 -23 80 -28 33 -4 72 -13 87 -19 16 -6 55 -11 87 -11 67 0
90 -17 33 -23 -21 -2 -12 -3 20 -1 51 3 77 -7 45 -19 -8 -2 -9 -8 -4 -13 5 -5
11 -4 13 4 5 14 49 16 57 3 4 -5 0 -11 -6 -14 -9 -3 -7 -7 6 -12 11 -5 21 -3
26 5 6 10 15 10 44 0 20 -6 36 -16 36 -21 0 -5 5 -9 12 -9 9 0 9 3 0 12 -17
17 -15 28 6 28 23 -1 62 -34 62 -54 0 -20 34 -21 50 -1 17 21 27 19 62 -10 16
-14 39 -25 50 -25 30 0 78 -32 78 -53 0 -14 4 -16 19 -8 14 8 23 6 37 -10 12
-14 20 -16 25 -8 5 8 13 -1 23 -25 14 -33 18 -36 36 -26 16 8 20 8 20 -3 0 -8
18 -19 40 -26 22 -6 40 -16 40 -21 0 -6 9 -10 19 -10 11 0 23 -4 26 -10 3 -5
16 -9 28 -8 22 2 87 -38 87 -54 0 -4 7 -8 15 -8 19 0 86 -37 105 -58 8 -10 38
-27 65 -39 l50 -22 6 22 c4 17 7 14 12 -17 5 -29 18 -51 52 -83 25 -24 52 -43
60 -43 7 0 19 -14 27 -30 7 -17 28 -37 46 -46 18 -8 36 -22 38 -29 3 -7 16
-16 29 -19 13 -3 30 -9 39 -12 15 -6 16 587 16 6905 l0 6911 -8240 0 -8240 0
0 -8675z m13952 4022 l40 -22 -6 -180 c-9 -236 -13 -271 -40 -288 -25 -17
-288 -137 -299 -137 -4 0 -7 42 -6 93 2 101 -2 117 -31 117 -32 0 -61 -62 -67
-143 -5 -68 -4 -75 18 -95 20 -20 34 -22 123 -22 124 0 163 -10 205 -54 57
-59 74 -127 79 -315 4 -175 -2 -227 -55 -441 -47 -189 -105 -290 -237 -407
-96 -86 -203 -149 -288 -170 -120 -28 -253 2 -292 67 -16 28 -17 41 -6 153 6
67 15 178 20 247 5 69 12 133 16 144 7 17 82 56 257 132 43 19 84 34 89 34 7
0 9 -35 4 -108 -4 -68 -3 -119 3 -136 11 -26 11 -26 41 -11 45 23 61 65 67
174 5 93 4 97 -20 124 -14 15 -36 27 -49 27 -82 2 -220 20 -246 34 -73 37
-101 117 -102 286 -1 386 114 675 328 822 52 36 118 66 197 90 80 24 200 17
257 -15z m-892 -307 c11 -6 26 -33 35 -64 35 -119 -29 -373 -141 -568 -60
-103 -70 -110 -100 -75 -13 16 -24 34 -24 42 0 7 20 55 45 106 51 105 56 132
24 127 -14 -2 -29 7 -43 25 -18 24 -21 42 -21 120 1 80 5 101 30 162 46 106
130 160 195 125z m-478 -251 c50 -11 119 -46 133 -68 5 -10 -1 -102 -25 -345
-12 -126 -14 -131 -53 -149 -156 -73 -284 -124 -292 -115 -3 3 0 49 6 102 14
114 5 155 -32 136 -30 -17 -58 -87 -69 -177 -11 -78 -38 -339 -65 -618 -9 -82
-20 -184 -26 -225 -17 -124 16 -170 64 -87 19 32 27 68 37 152 6 61 12 117 13
125 1 10 -5 14 -20 13 -27 -3 -27 -18 -3 196 12 106 24 179 32 187 22 20 357
166 368 159 13 -8 13 -43 -5 -204 -15 -150 -49 -488 -64 -648 -8 -82 -15 -111
-37 -150 -32 -55 -149 -174 -233 -236 -78 -57 -215 -123 -288 -137 -54 -11
-67 -10 -108 6 -138 52 -156 228 -81 790 8 61 27 214 41 340 31 274 53 392 93
501 89 242 247 395 462 448 70 17 87 17 152 4z m-707 -431 c-11 -106 -23 -175
-35 -198 -19 -39 -30 -96 -59 -340 -55 -441 -136 -1126 -145 -1216 -3 -35 -13
-54 -26 -54 -5 0 -77 -32 -161 -71 -154 -72 -168 -75 -169 -29 -2 74 -46 490
-67 630 -6 43 -7 40 -15 -40 -24 -239 -25 -275 -11 -291 11 -13 10 -42 -7
-180 -30 -252 -12 -224 -195 -298 -86 -34 -163 -61 -173 -59 -21 4 -21 19 2
198 13 103 25 151 48 203 22 49 34 98 43 175 12 104 79 613 110 837 18 131 19
159 4 183 -9 14 -6 55 11 172 12 85 24 159 27 165 6 16 324 165 352 165 5 0
12 -24 15 -52 3 -29 12 -127 21 -218 20 -211 37 -351 42 -346 10 9 33 286 28
331 -5 45 26 339 36 350 24 24 328 159 338 150 2 -2 -4 -77 -14 -167z m-875
-280 c0 -24 -11 -128 -25 -233 -14 -104 -30 -229 -36 -277 -6 -48 -17 -94 -23
-101 -11 -14 -276 -137 -295 -137 -19 0 -21 18 -10 94 11 86 6 116 -20 116
-36 0 -48 -32 -65 -170 -9 -74 -19 -143 -22 -152 -4 -14 12 -10 81 22 90 41
115 48 115 29 0 -42 -53 -366 -61 -374 -5 -5 -51 -29 -102 -51 l-92 -41 -8
-44 c-20 -119 -47 -312 -44 -316 2 -2 20 14 40 36 40 44 51 76 73 206 8 49 16
91 18 93 12 11 280 122 296 122 14 0 20 -7 20 -22 0 -46 -87 -667 -97 -695 -3
-7 -21 -17 -41 -24 -21 -6 -55 -20 -77 -29 -22 -10 -110 -48 -195 -85 -85 -37
-180 -78 -210 -92 -30 -13 -91 -38 -135 -55 -44 -17 -84 -34 -90 -38 -5 -5
-19 -10 -30 -12 -17 -3 -19 2 -17 32 10 106 53 346 67 366 14 22 34 127 76
399 10 72 40 258 65 414 27 175 44 311 43 355 -2 64 31 320 46 358 4 9 45 35
93 58 175 85 627 289 645 289 14 1 17 -7 17 -41z m-800 -211 c0 -2 -12 -14
-27 -28 -24 -22 -24 -13 0 19 8 11 27 17 27 9z m-60 -81 c0 -2 -7 -7 -16 -10
-8 -3 -12 -2 -9 4 6 10 25 14 25 6z m-48 -180 c9 -12 21 -37 25 -56 10 -47 6
-192 -8 -260 -17 -88 -50 -223 -58 -245 -31 -79 -86 -181 -116 -213 -40 -45
-42 -52 -17 -52 47 0 82 -90 82 -207 0 -239 -117 -617 -231 -747 -49 -55 -115
-105 -194 -144 -61 -30 -81 -39 -195 -86 -36 -15 -74 -32 -85 -37 -11 -5 -67
-29 -125 -54 l-105 -44 -3 24 c-5 40 56 357 73 375 26 28 43 96 86 335 22 127
54 302 70 390 27 149 52 303 62 385 3 21 -1 41 -9 51 -12 13 -10 39 16 180 39
206 35 194 73 212 18 9 86 41 152 72 309 147 456 182 507 121z m-1152 -455 c0
-52 -49 -290 -65 -314 -28 -43 -38 -85 -120 -522 -25 -132 -50 -258 -55 -280
-5 -22 -14 -69 -20 -105 -6 -36 -18 -99 -26 -140 -10 -47 -13 -96 -9 -132 4
-42 -2 -100 -26 -225 -17 -92 -33 -171 -35 -175 -5 -8 -359 -158 -374 -158
-15 0 -13 16 26 208 25 125 41 183 54 197 14 15 29 67 49 169 17 81 33 157 37
169 4 15 3 19 -4 12 -9 -10 -15 -26 -67 -200 -38 -124 -84 -266 -95 -290 -5
-11 -11 -31 -14 -45 -7 -37 -47 -169 -65 -218 -13 -36 -25 -48 -64 -69 -27
-13 -51 -22 -53 -20 -6 5 11 272 32 498 17 191 16 262 -3 169 -40 -193 -53
-283 -47 -315 3 -20 1 -64 -6 -98 -22 -114 -60 -290 -62 -292 -7 -4 -82 -37
-192 -85 -83 -36 -121 -48 -126 -40 -7 11 10 113 45 280 11 49 28 96 40 111
25 31 38 82 191 802 59 279 73 361 64 372 -9 11 -8 33 5 97 27 134 54 241 62
249 4 4 44 23 88 42 44 19 123 55 175 81 52 25 101 46 109 46 11 0 13 -15 7
-77 -3 -43 -10 -145 -16 -228 -5 -82 -12 -175 -15 -205 -6 -69 -8 -74 100 265
47 149 93 286 103 305 15 30 36 43 182 112 91 42 171 77 178 78 7 0 12 -12 12
-29z m3681 -184 l-23 -22 17 28 c10 15 20 25 23 22 3 -3 -5 -16 -17 -28z
m1215 -129 c-21 -438 -29 -533 -44 -550 -15 -18 -111 -58 -139 -58 -13 0 -14
10 -9 63 3 34 8 125 12 202 3 77 9 144 12 149 3 5 0 6 -5 3 -6 -4 -16 -36 -22
-72 -20 -114 -92 -379 -107 -396 -17 -19 -132 -65 -140 -57 -4 5 -19 91 -55
321 -6 38 -12 67 -14 65 -1 -2 -6 -75 -10 -163 -9 -185 -11 -222 -13 -250 -1
-15 -21 -31 -64 -53 -105 -54 -102 -58 -94 126 4 86 13 238 21 336 12 153 16
181 32 190 34 21 206 96 218 96 15 0 29 -56 50 -205 9 -60 18 -111 20 -113 4
-4 15 34 38 133 26 110 68 250 78 260 13 13 210 103 228 104 11 1 13 -22 7
-131z m-316 38 c0 -9 -30 -14 -35 -6 -4 6 3 10 14 10 12 0 21 -2 21 -4z
m-1000 -57 c13 -9 13 -10 0 -8 -34 3 -49 -2 -44 -15 4 -9 -5 -16 -28 -20 -36
-7 -102 -46 -78 -46 13 0 13 -1 0 -10 -10 -6 -11 -10 -2 -10 16 0 16 -25 -1
-38 -10 -8 -21 -7 -42 4 -34 18 -72 10 -54 -12 6 -8 16 -14 21 -14 6 0 4 7 -3
16 -12 14 -11 16 6 13 33 -7 24 -34 -12 -37 -18 -2 -33 1 -33 6 0 6 -10 6 -24
-1 -13 -7 -22 -15 -19 -20 3 -4 12 -2 21 5 13 11 15 10 10 -12 -3 -14 -9 -33
-13 -42 -6 -16 0 -18 53 -18 48 0 63 4 71 17 15 27 23 10 24 -52 2 -55 1 -56
-24 -53 -22 4 -58 -17 -47 -27 2 -2 30 5 63 16 33 11 65 17 72 15 7 -3 13 -1
13 4 0 6 11 10 25 10 25 0 36 19 13 21 -20 1 41 18 100 28 28 4 52 5 52 1 0
-10 -25 -20 -53 -21 -17 -1 -15 -3 7 -8 16 -3 31 -12 33 -18 3 -9 -4 -11 -27
-7 -64 13 -269 -75 -311 -134 -25 -35 -28 -36 -85 -33 -46 2 -77 -5 -144 -30
-46 -18 -95 -38 -109 -45 -13 -7 -29 -10 -34 -7 -6 3 -7 2 -4 -4 3 -5 -6 -18
-21 -29 -15 -10 -48 -39 -75 -63 -45 -42 -48 -43 -54 -23 -7 29 -28 28 -115
-7 -142 -57 -218 -105 -218 -138 0 -28 -16 -30 -25 -3 -10 32 -40 25 -184 -46
-74 -36 -169 -78 -210 -94 -122 -45 -190 -77 -232 -111 -31 -24 -42 -29 -53
-20 -11 9 -35 4 -106 -24 -96 -38 -169 -71 -208 -96 -20 -12 -24 -12 -33 1 -8
12 -9 10 -4 -8 4 -15 1 -30 -8 -40 -8 -10 -21 -70 -31 -152 -9 -74 -21 -157
-26 -185 -5 -27 -12 -78 -14 -113 -3 -34 -13 -105 -22 -157 -21 -113 -14 -131
47 -121 32 5 37 3 33 -12 -2 -10 8 -26 25 -39 l29 -23 -6 23 c-3 12 -12 28
-19 35 -22 22 -15 29 45 48 31 10 77 29 101 42 24 12 50 21 58 18 8 -3 12 -2
9 2 -5 8 143 74 174 78 29 3 185 67 224 92 21 13 40 32 43 42 3 10 11 21 19
24 8 3 14 12 14 21 0 16 21 20 34 8 10 -11 98 -13 111 -3 6 4 28 11 50 14 105
19 282 142 363 253 l20 28 20 -25 c17 -21 26 -24 91 -22 40 0 89 6 109 12 78
25 224 104 278 152 57 50 57 50 74 29 l16 -22 58 26 c33 14 65 24 73 21 8 -3
12 -2 9 3 -3 4 14 14 37 21 23 7 59 21 80 32 22 11 45 17 53 14 8 -3 13 -2 10
3 -9 14 177 83 200 74 40 -15 60 -53 28 -53 -12 0 -15 -6 -11 -21 5 -18 2 -20
-16 -15 -12 3 -30 6 -39 6 -26 0 -22 15 7 28 30 14 32 28 5 35 -17 4 -20 2
-15 -14 5 -16 -1 -21 -39 -31 -25 -6 -42 -16 -39 -21 3 -4 12 -6 20 -2 30 11
80 -6 92 -31 9 -21 14 -23 30 -14 26 13 34 13 25 -2 -6 -10 -4 -10 8 0 14 11
19 10 32 -9 8 -12 12 -27 9 -32 -10 -17 21 5 35 25 16 22 40 23 64 1 10 -9 18
-11 18 -6 0 6 21 14 47 18 33 5 42 9 32 16 -11 7 -10 9 4 9 10 0 15 5 12 10
-3 6 4 10 15 10 16 0 20 -5 16 -15 -7 -19 13 -19 38 0 11 8 28 15 38 15 10 0
30 7 43 16 16 10 35 14 52 10 16 -3 22 -3 16 0 -7 3 -13 10 -13 15 0 11 22 8
31 -4 3 -4 18 -3 32 4 24 11 25 13 10 24 -13 10 -9 11 23 10 22 -1 53 4 69 11
17 7 62 25 100 40 39 14 84 32 100 39 150 61 197 81 241 101 29 13 80 34 115
47 35 14 98 39 139 57 171 75 212 90 243 92 l32 3 0 -70 c-1 -38 -4 -140 -9
-225 -7 -146 -12 -230 -36 -600 -13 -191 -29 -537 -34 -731 -2 -80 -8 -155
-14 -165 -5 -10 -13 -41 -17 -68 -5 -32 -10 -44 -16 -35 -8 13 -13 5 -10 -14
1 -5 -4 -7 -11 -5 -7 3 -20 -3 -30 -11 -9 -9 -46 -27 -82 -41 -35 -13 -63 -27
-60 -32 3 -4 -1 -8 -9 -8 -8 0 -25 -8 -38 -19 -13 -10 -49 -26 -79 -36 -30
-10 -66 -23 -80 -30 -77 -40 -111 -54 -158 -64 -28 -6 -71 -19 -94 -30 -24
-11 -74 -34 -113 -51 -87 -40 -192 -80 -225 -87 -14 -2 -38 -11 -55 -18 -16
-8 -57 -23 -90 -35 -77 -28 -177 -66 -235 -90 -142 -60 -380 -150 -394 -150
-9 0 -16 -4 -16 -10 0 -5 -8 -10 -17 -10 -14 0 -89 -27 -198 -71 -11 -4 -42
-17 -70 -28 -27 -10 -88 -35 -135 -55 -47 -19 -153 -57 -236 -85 -83 -27 -175
-61 -205 -74 -100 -46 -130 -57 -149 -57 -10 0 -22 -4 -25 -10 -3 -5 -20 -10
-36 -10 -17 0 -32 -6 -35 -15 -4 -8 -14 -15 -24 -15 -9 0 -30 -6 -46 -14 -51
-25 -347 -134 -409 -152 -33 -9 -71 -22 -85 -30 -36 -19 -207 -84 -223 -84 -7
0 -18 -5 -23 -10 -6 -6 -46 -23 -90 -39 -43 -16 -137 -52 -209 -79 -71 -28
-236 -89 -365 -137 -129 -47 -264 -98 -300 -112 -60 -24 -137 -52 -280 -104
-106 -38 -375 -142 -425 -164 -27 -13 -72 -30 -100 -40 -57 -19 -139 -50 -275
-105 -52 -21 -104 -41 -115 -43 -11 -3 -49 -17 -85 -30 -278 -105 -363 -137
-420 -156 -58 -20 -249 -90 -385 -141 -27 -11 -95 -36 -150 -56 -55 -20 -129
-47 -165 -61 -36 -13 -78 -30 -95 -37 -31 -15 -179 -68 -253 -92 -23 -7 -55
-20 -70 -28 -15 -8 -67 -28 -117 -46 -96 -34 -199 -73 -253 -96 -18 -8 -41
-14 -50 -14 -10 0 -26 -6 -37 -13 -11 -8 -72 -32 -135 -55 -63 -22 -223 -82
-355 -132 -132 -51 -314 -118 -405 -151 -91 -33 -185 -68 -210 -79 -25 -11
-121 -47 -215 -81 -201 -72 -212 -76 -335 -124 -52 -21 -126 -48 -165 -60 -38
-12 -97 -34 -130 -48 -33 -13 -107 -41 -165 -60 -58 -20 -136 -48 -175 -62
-38 -15 -86 -31 -105 -37 -19 -5 -40 -14 -46 -19 -6 -5 -31 -16 -55 -23 -24
-8 -98 -35 -164 -59 -66 -25 -156 -57 -200 -73 -44 -15 -98 -36 -121 -46 -22
-10 -44 -18 -48 -18 -4 0 -22 -6 -39 -14 -46 -20 -449 -171 -607 -227 -140
-50 -212 -76 -342 -127 -42 -16 -100 -35 -130 -42 -29 -7 -64 -18 -78 -25 -30
-16 -187 -74 -290 -109 -110 -37 -213 -73 -232 -81 -15 -6 -18 -2 -18 28 0 19
9 56 19 83 11 27 27 76 36 109 24 84 91 303 125 405 61 185 157 488 195 615
44 147 101 333 137 445 32 103 34 105 70 117 21 7 58 22 82 33 25 11 48 20 52
20 4 0 57 20 118 44 61 24 172 65 246 91 74 27 218 82 320 123 259 104 349
138 470 178 95 31 215 76 295 110 17 7 49 20 73 29 24 10 41 19 39 21 -4 4
-149 -46 -162 -56 -5 -4 -26 -12 -45 -18 -19 -5 -44 -13 -55 -17 l-20 -8 20
16 c11 9 27 17 37 17 22 0 139 56 132 63 -3 3 5 3 18 0 19 -4 20 -3 8 7 -12 9
-11 10 6 5 13 -3 30 2 46 14 13 11 50 28 81 39 31 10 53 23 49 27 -4 5 1 5 11
2 9 -4 17 -3 17 1 0 9 49 32 67 32 7 0 13 5 13 10 0 6 9 10 21 10 11 0 18 4
15 9 -3 5 5 11 19 13 13 3 22 1 19 -3 -3 -5 0 -9 6 -9 7 0 14 9 17 20 3 11 10
21 17 21 6 1 22 2 36 3 14 1 37 9 51 17 15 8 46 25 69 37 32 18 39 26 29 32
-11 7 -9 10 6 16 11 5 26 14 33 21 7 7 29 13 48 13 21 0 33 4 32 12 -2 7 7 17
20 23 15 6 21 16 18 28 -2 9 1 17 7 17 7 0 4 5 -6 11 -23 13 -87 -7 -87 -27 0
-21 -17 -17 -23 6 -4 14 0 20 13 20 10 0 23 7 30 15 7 8 21 15 31 15 10 0 21
5 25 12 8 13 -6 10 -77 -18 -43 -16 -48 -16 -63 -2 -14 15 -13 17 12 27 15 6
37 15 49 20 17 8 21 7 17 -4 -3 -8 -19 -17 -35 -20 -16 -4 -29 -10 -29 -15 0
-5 18 -1 40 7 22 9 40 22 40 30 0 15 69 81 105 100 19 11 24 10 29 -3 3 -8 1
-14 -7 -13 -26 3 -36 -2 -42 -21 -3 -11 -15 -20 -26 -20 -10 0 -19 -4 -19 -10
0 -5 7 -7 15 -4 8 4 15 1 15 -5 0 -6 -5 -11 -12 -11 -6 0 -8 -3 -5 -7 4 -3 19
6 33 20 29 29 39 33 49 17 9 -15 51 -12 65 5 7 8 19 15 26 15 8 0 14 5 14 10
0 6 -7 10 -15 10 -8 0 -15 -4 -15 -10 0 -5 -13 -10 -30 -10 -41 0 -38 14 7 28
23 7 42 8 54 2 23 -13 29 -12 29 0 0 6 -8 10 -17 10 -10 1 7 13 37 28 85 42
100 54 118 92 17 38 57 81 66 72 3 -3 6 -16 6 -29 0 -33 24 -39 83 -20 28 9
55 13 60 10 6 -3 7 -1 3 5 -3 6 9 15 31 23 21 6 52 24 70 39 17 15 37 30 45
32 10 4 12 47 10 225 -3 180 -7 343 -11 421 -1 6 -8 12 -15 12 -27 0 -186 -62
-222 -86 -19 -13 -40 -21 -46 -18 -6 4 -9 3 -6 -2 3 -5 -2 -23 -12 -41 l-17
-32 -11 25 c-10 20 -17 23 -39 18 -26 -5 -114 -42 -155 -64 -30 -16 -11 13 25
38 26 18 28 22 12 23 -16 1 -16 2 5 9 l25 8 -25 1 -25 2 25 21 25 20 3 -31 c4
-36 12 -39 36 -13 10 11 45 24 88 32 50 10 65 16 52 21 -16 7 -17 8 -2 8 18 1
42 34 32 44 -3 3 3 12 15 19 13 8 21 23 21 40 0 25 -4 28 -34 28 -26 0 -36 -5
-41 -20 -4 -11 -11 -17 -17 -14 -6 4 -5 10 3 15 11 7 9 12 -9 25 -15 10 -21
22 -17 34 4 14 -2 18 -35 23 -22 3 -53 2 -68 -3 -25 -7 -25 -8 -7 -16 11 -4
23 -13 28 -20 4 -7 15 -10 25 -7 12 4 11 0 -5 -14 -13 -11 -33 -20 -45 -19
-19 1 -22 6 -20 28 4 37 -11 42 -55 19 -72 -37 -147 -65 -139 -52 3 4 52 27
108 50 57 23 117 48 133 56 17 7 62 26 100 41 101 39 232 103 246 120 6 8 18
14 25 14 8 0 14 3 14 8 0 4 15 23 33 43 23 24 40 60 55 110 31 110 52 198 52
222 0 11 9 30 20 42 18 19 19 27 9 76 -6 30 -11 59 -12 64 -4 22 14 367 20
381 10 27 26 15 19 -16 -3 -17 -2 -29 2 -26 4 2 8 -14 10 -36 2 -25 -1 -37 -8
-33 -5 3 -10 2 -10 -4 0 -5 5 -11 12 -13 8 -3 6 -11 -5 -29 -21 -31 -34 -213
-18 -249 11 -24 11 -23 6 8 -3 19 -1 31 5 27 5 -3 13 2 18 11 6 11 11 13 16 5
4 -6 2 -11 -3 -11 -6 0 -11 -7 -11 -16 0 -12 6 -15 22 -10 13 3 31 6 41 6 9 0
17 5 17 10 0 6 -7 10 -15 10 -8 0 -15 6 -15 13 1 17 29 65 30 50 0 -8 15 -13
40 -13 35 0 40 -3 40 -22 0 -32 13 -49 29 -39 7 5 11 13 7 19 -3 5 -3 24 0 41
8 40 44 45 44 6 0 -14 5 -25 10 -25 7 0 8 13 4 35 -5 30 -4 34 10 29 10 -4 16
-1 16 8 0 7 9 19 20 26 11 7 20 8 20 3 0 -5 -5 -11 -10 -13 -6 -2 -21 -29 -34
-61 -14 -36 -26 -54 -30 -45 -3 7 -4 1 -1 -15 3 -15 0 -37 -7 -50 -7 -12 -12
-25 -11 -28 2 -8 -34 -150 -40 -155 -9 -10 -15 66 -7 93 4 15 9 21 9 13 1 -13
2 -13 11 0 5 8 10 22 10 30 0 13 -1 13 -10 0 -7 -11 -10 -12 -10 -2 0 7 -7 20
-15 28 -17 18 -19 11 -5 -17 7 -13 7 -19 1 -19 -7 0 -9 -24 -6 -62 3 -43 2
-58 -5 -48 -8 13 -10 12 -10 -2 0 -12 -8 -18 -25 -18 -22 0 -25 4 -25 40 0 43
-2 45 -29 31 -10 -6 -27 -8 -38 -5 -17 5 -22 15 -25 50 -3 38 -1 44 17 45 20
0 20 0 0 8 -29 11 -41 -7 -49 -73 l-8 -58 44 2 c63 3 68 2 68 -16 0 -14 -7
-16 -45 -11 -40 6 -45 4 -45 -13 0 -10 -8 -21 -18 -25 -25 -7 -42 -47 -42 -95
0 -33 3 -40 19 -40 11 0 22 8 24 18 4 14 5 14 6 1 2 -24 -25 -42 -49 -34 -15
5 -20 13 -17 26 3 10 2 17 -3 14 -11 -7 -20 -59 -14 -82 3 -12 13 -20 22 -18
10 1 12 0 5 -2 -8 -3 -11 -19 -8 -44 3 -29 -1 -41 -13 -49 -16 -9 -16 -11 1
-24 12 -10 17 -28 17 -70 l0 -56 -40 0 -40 0 0 -46 0 -46 38 5 c20 2 29 2 20
0 -12 -3 -18 -14 -18 -34 0 -23 4 -29 21 -29 20 0 21 -4 15 -45 l-7 -45 40 0
c39 0 41 -1 41 -32 1 -27 2 -30 11 -16 7 12 6 24 -1 37 -14 28 -12 51 3 26 15
-24 37 -30 37 -10 0 8 -4 15 -10 15 -5 0 -10 4 -10 10 0 5 8 7 18 3 14 -5 15
-3 5 8 -7 7 -13 16 -13 20 0 4 6 9 13 12 6 2 1 2 -11 0 -17 -3 -21 0 -16 9 4
6 9 26 11 43 2 16 8 32 13 33 6 2 10 12 10 23 0 10 6 18 12 17 7 -2 14 7 16
20 3 17 -1 22 -17 22 -18 0 -21 6 -21 40 l0 40 60 0 c33 0 60 -4 60 -10 0 -24
37 -8 51 23 10 23 20 32 37 31 12 0 22 4 22 9 0 6 3 7 6 4 4 -3 15 -2 25 4 17
9 19 6 19 -26 0 -33 1 -35 16 -21 8 9 22 16 29 16 9 0 12 6 9 15 -6 15 4 19
36 16 13 -2 13 -1 0 8 -26 18 -57 13 -56 -9 1 -10 -3 -19 -9 -19 -5 0 -10 9
-9 19 0 13 -6 20 -17 20 -28 0 -49 11 -49 26 0 8 10 14 25 14 14 0 25 -4 25
-10 0 -5 16 -10 35 -10 20 0 46 -7 60 -16 18 -12 28 -13 44 -4 13 7 21 7 21 1
0 -6 7 -8 15 -5 10 4 15 0 15 -12 1 -18 1 -18 14 -1 15 19 36 23 36 6 0 -5 4
-8 9 -4 5 3 22 -6 37 -20 23 -22 25 -27 13 -42 -12 -14 -12 -16 1 -11 8 2 19
19 25 36 6 20 15 31 25 29 10 -1 14 5 13 20 -1 11 4 26 12 33 7 6 11 18 8 26
-3 8 0 14 7 14 6 0 23 9 37 20 14 11 42 20 62 21 20 0 30 3 24 6 -22 8 -14 25
8 18 14 -5 25 -1 33 10 7 10 19 15 27 12 10 -4 9 -6 -3 -6 -10 -1 -18 -5 -18
-10 0 -5 14 -4 31 2 20 8 25 13 15 15 -11 3 -16 15 -16 43 0 28 -4 39 -15 39
-8 0 -15 7 -15 15 0 11 11 15 40 15 33 0 40 -3 40 -20 0 -13 5 -18 15 -14 10
4 15 20 15 45 0 40 7 47 28 29 6 -6 10 -7 8 -4 -7 9 17 33 27 27 4 -2 7 -9 7
-14 0 -6 -5 -7 -11 -4 -7 5 -9 -5 -7 -26 2 -26 8 -35 25 -37 20 -3 21 -1 13
30 -8 25 -7 34 5 41 13 7 12 11 -6 30 -30 31 -53 67 -47 73 3 3 13 -2 21 -11
9 -8 20 -15 26 -15 6 0 11 -7 11 -15 0 -21 27 -19 34 3 2 9 2 0 -1 -20 l-5
-38 41 0 c30 0 41 4 41 15 0 10 11 15 35 15 27 0 35 4 35 19 0 14 6 17 23 14
18 -4 23 0 25 21 1 20 -3 26 -17 26 -11 0 -22 -6 -24 -12 -4 -10 -6 -10 -6 -1
-1 7 8 17 19 23 15 8 23 6 40 -12 18 -20 20 -20 14 -4 -5 13 -4 17 3 13 18
-11 23 20 7 40 -9 10 -13 13 -10 7 3 -6 -9 -4 -29 5 -23 11 -35 24 -37 41 -3
22 -7 25 -38 22 -48 -5 -38 1 55 33 44 16 82 32 86 37 3 4 48 26 100 49 51 22
122 54 157 70 63 29 109 38 97 19 -3 -6 1 -7 9 -4 9 3 16 1 16 -4 0 -6 -8 -13
-17 -15 -10 -3 9 -5 42 -5 63 -1 63 0 -14 30 -14 5 -20 13 -15 18 5 5 63 31
129 60 66 28 128 55 138 61 10 5 55 25 100 44 230 94 284 117 312 129 131 60
254 113 331 141 50 18 100 38 110 44 21 12 103 48 197 87 97 41 185 115 212
179 4 11 15 57 24 103 9 46 20 82 26 80 5 -2 14 17 20 42 9 37 12 41 17 23 3
-13 2 -23 -3 -23 -5 0 -9 -5 -9 -11 0 -5 4 -8 8 -5 4 2 14 1 22 -4 11 -7 11
-14 3 -32 -7 -13 -12 -17 -12 -10 -1 20 -28 14 -34 -8 -3 -11 -1 -33 3 -48 l8
-27 1 33 c1 25 5 32 21 32 11 0 20 6 20 14 0 7 11 16 24 18 34 7 48 -21 37
-77 -5 -25 -6 -45 -2 -45 3 0 -1 -5 -9 -10 -12 -8 -9 -10 10 -8 16 2 24 -2 23
-9 -2 -7 2 -13 7 -13 6 0 10 4 10 9 0 4 25 11 55 15 58 6 78 14 216 78 81 38
88 40 122 27 20 -7 34 -16 31 -21 -3 -5 0 -7 8 -6 7 2 16 10 20 18 5 12 7 11
7 -3 1 -10 6 -15 11 -12 16 10 12 -25 -5 -41 -9 -10 -15 -11 -15 -4 0 7 -6 6
-15 -4 -8 -8 -15 -31 -15 -50 0 -34 2 -36 35 -36 26 0 35 -4 36 -17 0 -11 3
-13 6 -5 3 8 16 11 36 8 18 -3 56 -8 84 -11 49 -5 54 -3 70 22 24 39 40 53 47
46 3 -4 6 -1 6 6 0 8 5 9 19 1 27 -14 51 -13 31 1 -11 7 -12 12 -3 15 7 3 9
12 6 20 -3 8 2 25 11 39 21 32 21 35 -10 35 -15 0 -33 -8 -40 -17 -13 -17 -13
-17 -14 0 0 9 -4 17 -10 17 -5 0 -10 16 -10 35 0 34 1 35 43 35 44 0 77 14 64
27 -5 4 -12 2 -16 -5 -5 -8 -8 -2 -9 18 0 18 5 33 14 37 22 8 5 25 -19 18 -15
-4 -18 -3 -9 3 11 7 10 11 -4 16 -11 4 -20 2 -22 -4 -2 -5 -13 -15 -24 -21
-16 -9 -19 -8 -13 2 6 9 3 11 -11 6 -18 -7 -18 -7 0 8 11 8 24 15 28 15 5 0
19 9 31 20 12 11 27 18 35 15 7 -2 11 -1 7 4 -3 5 6 19 21 30 19 15 31 18 48
11 13 -4 29 -4 39 1 9 6 23 9 29 8 7 -1 26 1 41 6 35 9 48 -1 16 -14 -21 -8
-22 -10 -6 -16 12 -5 22 -2 30 9 7 8 22 17 34 19 32 5 40 16 8 13 -14 -2 -24
1 -22 7 5 17 79 38 112 32 23 -4 25 -3 10 4 -23 10 -16 13 245 126 80 34 165
71 190 82 25 11 77 32 115 48 39 15 84 33 100 40 17 7 71 27 120 45 50 18 113
43 140 55 28 13 89 41 136 63 47 22 97 43 110 47 13 4 58 24 99 45 41 20 106
49 145 64 38 15 90 42 115 59 25 17 53 30 63 29 9 0 15 4 11 9 -3 6 10 26 31
44 l36 34 88 -6 c160 -10 301 47 563 228 15 11 32 19 38 19 5 0 10 5 10 10 0
13 31 13 50 -1z m-50 -69 c-19 -13 -30 -13 -30 0 0 6 10 10 23 10 18 0 19 -2
7 -10z m620 -30 c-20 -13 -33 -13 -25 0 3 6 14 10 23 10 15 0 15 -2 2 -10z
m-110 -45 c-14 -8 -34 -14 -45 -14 -13 0 -7 5 15 13 47 18 61 18 30 1z m-3813
-37 c-3 -8 -6 -5 -6 6 -1 11 2 17 5 13 3 -3 4 -12 1 -19z m-1380 -40 c-14
-140 -70 -584 -107 -853 -52 -382 -62 -477 -56 -524 10 -66 8 -96 -13 -181
-11 -41 -26 -109 -35 -151 l-17 -76 -127 -53 c-70 -29 -151 -63 -181 -76 -64
-29 -81 -30 -81 -6 0 47 72 328 99 384 29 63 47 118 39 118 -2 0 -23 -9 -46
-20 -22 -11 -46 -20 -52 -20 -18 0 -30 -48 -30 -123 0 -77 -63 -373 -84 -393
-6 -6 -60 -32 -121 -58 -60 -25 -123 -53 -138 -61 -52 -27 -61 -21 -53 38 3
28 9 63 12 77 4 18 3 21 -4 11 -5 -7 -16 -47 -23 -88 -9 -50 -19 -77 -29 -80
-14 -5 -201 -82 -299 -124 -49 -21 -71 -24 -71 -9 0 37 84 346 105 386 24 46
62 190 234 889 32 126 53 238 55 280 2 39 10 97 20 130 9 33 18 71 21 85 2 14
9 47 15 74 11 44 16 50 59 68 25 11 100 44 167 74 145 65 158 67 149 22 -19
-91 -69 -284 -76 -293 -23 -30 -108 -341 -180 -655 -5 -25 -30 -127 -55 -228
-24 -101 -47 -211 -50 -245 -12 -158 -13 -172 -4 -152 5 11 9 32 9 46 1 14 14
52 30 85 16 32 43 102 59 154 17 52 55 174 86 270 30 96 64 207 76 245 12 39
28 88 35 110 8 22 50 159 95 305 136 444 142 465 154 479 6 7 62 38 126 68
102 49 136 64 240 111 48 21 53 17 47 -40z m1350 30 c-3 -8 -6 -5 -6 6 -1 11
2 17 5 13 3 -3 4 -12 1 -19z m3197 -3 c-4 -8 -8 -15 -10 -15 -2 0 -4 7 -4 15
0 8 4 15 10 15 5 0 7 -7 4 -15z m66 0 c0 -8 -2 -15 -4 -15 -2 0 -6 7 -10 15
-3 8 -1 15 4 15 6 0 10 -7 10 -15z m666 -117 c-3 -73 -8 -194 -11 -268 -5
-130 -19 -250 -34 -279 -6 -13 -112 -59 -170 -74 l-23 -6 6 117 c10 175 36
503 42 539 5 28 14 35 87 67 45 19 88 36 96 36 11 0 12 -25 7 -132z m-216 107
c-7 -8 -18 -15 -24 -15 -6 0 -2 7 8 15 25 19 32 19 16 0z m-3903 -42 c-3 -10
-5 -4 -5 12 0 17 2 24 5 18 2 -7 2 -21 0 -30z m3636 -8 c0 -6 -8 -11 -19 -12
-10 -2 -13 0 -6 3 6 3 9 10 6 16 -4 6 -1 9 5 7 7 -3 13 -9 14 -14z m217 -16
c-18 -32 -22 -19 -11 29 1 2 6 0 11 -3 7 -4 7 -13 0 -26z m-380 2 c0 -6 -4
-13 -10 -16 -5 -3 -10 1 -10 9 0 9 5 16 10 16 6 0 10 -4 10 -9z m337 -33 c-3
-8 -6 -5 -6 6 -1 11 2 17 5 13 3 -3 4 -12 1 -19z m-3820 -10 c-3 -8 -6 -5 -6
6 -1 11 2 17 5 13 3 -3 4 -12 1 -19z m193 -85 c-11 -17 -11 -17 -6 0 3 10 6
24 7 30 0 9 2 9 5 0 3 -7 0 -20 -6 -30z m-183 -5 c-3 -8 -6 -5 -6 6 -1 11 2
17 5 13 3 -3 4 -12 1 -19z m-27 -3 c0 -8 -4 -15 -10 -15 -5 0 -7 7 -4 15 4 8
8 15 10 15 2 0 4 -7 4 -15z m3734 -10 c3 -8 1 -15 -3 -15 -5 0 -11 7 -15 15
-3 8 -1 15 3 15 5 0 11 -7 15 -15z m-118 -37 c-7 -54 -27 -266 -32 -337 -2
-30 -6 -67 -10 -84 -5 -23 -3 -29 7 -24 113 49 234 97 244 97 17 0 22 -34 17
-108 l-4 -61 -142 -59 c-222 -94 -327 -134 -333 -128 -3 2 2 83 12 178 9 95
20 223 25 283 12 141 20 198 28 212 11 18 134 71 165 72 27 1 28 0 23 -41z
m-3413 10 c-3 -13 -10 -28 -15 -34 -5 -7 -8 -16 -6 -20 1 -5 -2 -31 -6 -58
l-8 -50 -20 33 c-11 17 -17 35 -14 39 4 3 11 0 16 -8 7 -12 11 -10 18 10 12
30 7 37 -13 20 -10 -8 -15 -9 -15 -1 0 6 4 11 8 11 5 0 18 18 31 40 25 45 32
50 24 18z m-190 -1 c4 3 7 1 7 -6 0 -6 -7 -14 -15 -17 -8 -4 -15 -12 -15 -20
0 -8 -4 -14 -8 -14 -4 0 -6 16 -4 35 3 27 7 33 17 25 6 -5 15 -7 18 -3z m3690
-40 c3 -8 1 -20 -4 -28 -6 -10 -9 -7 -9 14 0 29 5 35 13 14z m144 -24 c-3 -10
-5 -4 -5 12 0 17 2 24 5 18 2 -7 2 -21 0 -30z m-3797 -37 c0 -8 5 -18 10 -21
6 -3 10 -1 10 5 0 6 4 8 10 5 5 -3 7 0 4 8 -3 8 -1 18 5 22 7 4 11 -5 11 -24
0 -28 -9 -36 -33 -32 -5 1 -7 -18 -5 -41 2 -28 7 -42 16 -40 21 4 13 -8 -13
-18 -18 -7 -25 -17 -25 -35 0 -15 4 -24 10 -20 6 3 10 -1 10 -9 0 -9 -4 -16
-10 -16 -5 0 -10 -9 -10 -20 0 -23 22 -26 40 -5 6 8 15 14 18 13 30 -3 34 4
30 52 -3 27 -1 47 3 44 5 -2 13 10 19 28 9 31 10 30 4 -12 -8 -66 -32 -188
-33 -167 -1 9 -8 17 -16 17 -8 0 -15 5 -15 12 0 6 -3 8 -6 5 -4 -4 -1 -13 5
-21 15 -18 4 -25 -34 -21 -17 2 -37 -3 -47 -12 -23 -20 -56 -10 -38 12 7 8 19
15 26 15 19 0 20 90 2 90 -8 1 -6 6 5 14 9 7 17 23 17 35 0 11 5 21 10 21 6 0
10 17 9 38 l-1 37 -10 -37 c-7 -27 -15 -38 -29 -38 -15 0 -19 -7 -19 -31 0
-19 -4 -28 -11 -23 -8 4 -10 -3 -7 -22 3 -16 3 -23 1 -16 -3 7 -11 11 -18 10
-8 -2 -13 2 -12 7 1 6 5 9 8 8 6 -2 30 95 35 137 1 8 2 19 3 25 1 5 6 4 13 -3
19 -19 48 -15 48 8 0 13 -7 20 -20 20 -21 0 -24 8 -14 35 6 14 9 14 25 -4 11
-11 19 -27 19 -35z m48 47 c-10 -2 -28 -2 -40 0 -13 2 -5 4 17 4 22 1 32 -1
23 -4z m3626 -251 c13 -13 17 -13 31 2 15 14 22 17 41 16 3 -1 14 9 24 22 l19
23 1 -27 c0 -16 -5 -28 -12 -28 -7 0 -46 -14 -87 -30 -81 -33 -81 -33 -81 -22
0 5 15 16 33 25 l32 18 -30 -6 c-24 -4 -27 -3 -12 5 11 7 17 22 16 43 -2 27
-2 28 -6 7 -3 -14 -9 -29 -15 -35 -7 -7 -9 1 -5 25 4 19 10 64 14 100 l7 65 8
-94 c5 -61 13 -100 22 -109z m-438 142 c27 -28 34 -44 34 -74 0 -39 0 -39 -82
-80 l-83 -40 -20 25 c-27 33 -60 32 -96 -4 -48 -48 -41 -52 90 -49 l119 3 31
-29 c38 -36 47 -80 31 -146 -29 -120 -125 -236 -243 -294 -114 -55 -193 -66
-236 -32 -21 17 -51 87 -51 122 0 30 6 35 81 74 44 23 86 39 93 37 7 -3 16
-19 19 -36 6 -27 11 -31 40 -31 41 0 80 28 97 70 11 26 11 34 -2 46 -12 12
-27 13 -85 4 -83 -11 -124 -2 -165 37 -24 23 -28 35 -28 81 0 129 125 272 292
332 84 31 124 27 164 -16z m-3139 4 c-3 -8 -6 -5 -6 6 -1 11 2 17 5 13 3 -3 4
-12 1 -19z m-190 -10 c-3 -8 -6 -5 -6 6 -1 11 2 17 5 13 3 -3 4 -12 1 -19z
m3879 -23 c-6 -27 -13 -39 -18 -32 -6 9 -8 8 -8 -2 0 -8 -3 -12 -6 -9 -5 5 32
88 39 88 2 0 -1 -20 -7 -45z m-5956 0 c0 -8 -21 -102 -46 -208 -62 -256 -67
-278 -112 -456 l-39 -155 -89 -43 c-49 -23 -99 -43 -110 -43 -21 0 -21 1 -8
63 7 34 27 116 44 181 17 66 29 126 27 135 -3 14 -5 14 -10 1 -3 -8 -60 -234
-127 -503 -83 -334 -122 -509 -124 -555 -1 -37 -20 -140 -41 -230 l-39 -162
-41 -19 c-64 -31 -307 -131 -316 -131 -5 0 -9 11 -9 24 0 39 80 340 94 351 15
13 40 80 65 175 60 232 112 431 124 475 52 184 108 410 105 424 -2 9 -25 -65
-51 -164 -27 -99 -52 -191 -56 -205 -8 -26 -49 -51 -150 -90 -33 -13 -58 -17
-63 -12 -6 6 7 69 32 163 45 162 118 443 149 568 11 40 27 81 37 91 11 9 87
47 169 84 83 37 197 90 255 117 165 77 304 137 318 138 6 1 12 -6 12 -14z
m2257 -17 c-3 -8 -6 -5 -6 6 -1 11 2 17 5 13 3 -3 4 -12 1 -19z m2628 -119
c11 -17 -35 -397 -57 -474 -24 -84 -90 -189 -149 -238 -93 -75 -251 -131 -307
-108 -42 17 -72 77 -72 142 0 66 40 416 50 444 7 19 100 72 158 89 20 7 22 4
22 -24 0 -17 -9 -106 -21 -198 -26 -208 -27 -229 -8 -247 14 -14 19 -14 51 -1
19 8 47 31 62 50 29 38 41 106 67 376 11 111 25 150 53 150 6 0 34 11 61 24
56 27 81 31 90 15z m-2835 -81 c0 -7 -7 -22 -15 -32 -14 -19 -15 -18 -15 12 0
22 5 32 15 32 8 0 15 -6 15 -12z m94 -14 c18 -7 22 -25 5 -21 -6 1 -19 -11
-29 -28 -9 -16 -24 -31 -33 -33 -13 -3 -17 4 -17 33 0 20 4 34 9 31 4 -3 17 1
27 9 23 17 19 16 38 9z m82 -56 c-8 -23 -15 -39 -16 -35 0 5 -6 5 -12 0 -7 -4
-17 -8 -23 -8 -5 0 -9 -9 -7 -19 3 -17 2 -18 -12 -3 -18 17 -21 32 -6 22 6 -4
10 7 10 24 0 23 4 31 18 30 10 0 12 -3 5 -6 -18 -7 -16 -33 2 -33 14 0 24 16
39 64 4 10 9 16 12 13 3 -3 -1 -25 -10 -49z m4749 22 c-3 -5 -11 -10 -16 -10
-6 0 -7 5 -4 10 3 6 11 10 16 10 6 0 7 -4 4 -10z m-703 -21 c-24 -11 -48 -19
-55 -16 -6 2 8 11 33 19 63 22 73 20 22 -3z m628 -14 c-14 -8 -32 -14 -40 -14
-8 0 -1 7 15 14 39 18 57 18 25 0z m-4870 -25 c0 -11 -4 -20 -10 -20 -5 0 -10
9 -10 20 0 11 5 20 10 20 6 0 10 -9 10 -20z m4170 16 c0 -3 -4 -8 -10 -11 -5
-3 -10 -1 -10 4 0 6 5 11 10 11 6 0 10 -2 10 -4z m-4066 -42 c28 -11 17 -24
-19 -24 -34 0 -47 13 -22 23 18 8 23 8 41 1z m-142 -46 c-8 -8 -9 -4 -5 13 4
13 8 18 11 10 2 -7 -1 -18 -6 -23z m72 2 c-2 -54 -4 -60 -14 -60 -5 0 -7 14
-4 33 11 62 20 76 18 27z m4651 20 c-3 -5 -14 -10 -23 -10 -15 0 -15 2 -2 10
20 13 33 13 25 0z m-668 -29 c14 -9 11 -9 -16 -4 -23 4 -32 3 -27 -5 4 -7 -3
-7 -24 1 -20 8 -25 14 -17 19 15 10 58 4 84 -11z m-3937 5 c0 -2 -7 -9 -15
-16 -12 -10 -15 -10 -15 4 0 9 7 16 15 16 8 0 15 -2 15 -4z m2136 -153 c-11
-102 -63 -507 -66 -519 -1 -6 -133 -54 -146 -54 -14 0 -16 8 -10 53 8 72 34
265 41 307 3 19 -24 -55 -60 -165 -79 -241 -80 -244 -102 -252 -10 -3 -38 -15
-62 -25 -24 -11 -47 -16 -51 -11 -11 11 -18 74 -25 218 -4 66 -9 127 -12 135
-3 8 -16 -75 -29 -184 -14 -121 -29 -204 -36 -211 -20 -18 -139 -68 -145 -61
-3 3 14 153 38 333 33 247 48 332 60 344 15 15 42 27 181 79 l46 18 7 -72 c4
-39 10 -113 14 -164 l6 -93 44 138 c24 76 52 164 63 195 l20 57 112 45 c61 24
115 41 120 36 4 -4 1 -70 -8 -147z m-2146 97 c0 -5 -4 -10 -10 -10 -5 0 -10 5
-10 10 0 6 5 10 10 10 6 0 10 -4 10 -10z m30 -25 c0 -8 -2 -15 -4 -15 -2 0 -6
7 -10 15 -3 8 -1 15 4 15 6 0 10 -7 10 -15z m3890 -26 c0 -10 -4 -19 -10 -19
-5 0 -10 12 -10 26 0 14 4 23 10 19 6 -3 10 -15 10 -26z m57 4 c-3 -3 -11 -2
-17 2 -9 6 -9 10 1 16 14 8 27 -7 16 -18z m-4030 1 c14 -14 14 -16 -3 -28 -17
-13 -17 -15 -1 -39 21 -33 21 -39 0 -35 -13 2 -17 16 -18 61 -1 31 0 57 2 57
2 0 11 -7 20 -16z m-3177 -2 c0 -5 -17 -79 -39 -165 -26 -108 -46 -166 -63
-189 -14 -18 -84 -151 -156 -295 l-131 -262 -11 -193 c-6 -106 -10 -254 -9
-328 3 -130 2 -141 -36 -283 -29 -109 -45 -151 -60 -161 -30 -20 -283 -126
-300 -126 -18 0 -14 24 31 191 42 152 51 210 58 354 l6 110 -35 -125 c-19 -69
-39 -154 -44 -190 -9 -72 -76 -320 -97 -361 -10 -20 -44 -39 -163 -87 -83 -34
-158 -62 -166 -62 -9 0 -15 9 -15 23 0 33 87 327 103 346 7 9 23 39 34 66 23
53 32 82 83 265 126 456 150 542 182 640 18 55 31 122 33 160 2 36 17 115 34
175 18 61 38 130 44 155 14 50 19 53 210 140 91 41 137 57 137 46 0 -8 -57
-226 -75 -288 -7 -26 -21 -62 -29 -80 -26 -55 -77 -219 -74 -234 3 -12 41 57
113 206 25 54 44 112 85 266 21 77 42 150 48 161 7 12 45 35 89 54 170 71 188
79 201 79 6 0 12 -4 12 -8z m3270 -62 c0 -5 -6 -10 -14 -10 -8 0 -18 5 -21 10
-3 6 3 10 14 10 12 0 21 -4 21 -10z m-149 -53 c-8 -8 -11 -7 -11 4 0 20 13 34
18 19 3 -7 -1 -17 -7 -23z m130 13 c7 24 7 23 8 -7 1 -17 -5 -38 -12 -45 -8
-7 -17 -20 -21 -28 -3 -8 -4 -4 -1 10 2 14 5 41 6 60 1 29 3 31 7 10 l5 -25 8
25z m679 0 c0 -5 -5 -10 -11 -10 -5 0 -7 5 -4 10 3 6 8 10 11 10 2 0 4 -4 4
-10z m-710 -26 c0 -8 -5 -12 -10 -9 -6 4 -8 11 -5 16 9 14 15 11 15 -7z m27
-86 c-3 -7 -5 -2 -5 12 0 14 2 19 5 13 2 -7 2 -19 0 -25z m520 18 c0 -7 -7
-11 -16 -9 -9 2 -27 -6 -39 -18 -19 -17 -28 -19 -45 -11 -15 7 -17 11 -7 12 8
0 33 9 55 20 48 23 52 24 52 6z m950 -18 c-3 -8 -6 -5 -6 6 -1 11 2 17 5 13 3
-3 4 -12 1 -19z m-957 -18 c8 -5 11 -10 5 -10 -5 0 -17 5 -25 10 -8 5 -10 10
-5 10 6 0 17 -5 25 -10z m-4660 -163 c0 -7 -13 -80 -29 -162 -16 -83 -35 -184
-41 -225 -6 -41 -19 -102 -30 -135 -11 -33 -42 -179 -69 -325 -28 -146 -62
-318 -76 -384 -14 -65 -27 -150 -29 -190 -3 -66 -12 -105 -68 -291 -20 -67
-41 -105 -60 -105 -4 0 -30 -9 -56 -21 -167 -73 -242 -101 -257 -95 -16 6 -15
11 46 212 21 72 52 155 68 185 16 30 31 66 35 81 l6 27 -50 -21 c-28 -12 -55
-29 -61 -39 -5 -11 -14 -58 -18 -106 -9 -85 -80 -356 -99 -375 -12 -12 -263
-117 -281 -118 -9 0 -12 9 -8 33 9 60 88 312 111 352 13 22 51 117 86 210 99
271 131 356 155 420 80 206 295 796 295 809 0 4 11 31 25 60 28 59 10 48 270
163 132 58 135 59 135 40z m4747 -13 c-3 -3 -12 -4 -19 -1 -8 3 -5 6 6 6 11 1
17 -2 13 -5z m56 -1 c-7 -2 -19 -2 -25 0 -7 3 -2 5 12 5 14 0 19 -2 13 -5z
m-3110 -131 c-3 -12 -10 -22 -15 -22 -5 0 -7 3 -5 8 2 4 7 16 11 26 9 25 17
16 9 -12z m-736 -4 c-3 -8 -6 -5 -6 6 -1 11 2 17 5 13 3 -3 4 -12 1 -19z m720
-50 c-3 -8 -6 -5 -6 6 -1 11 2 17 5 13 3 -3 4 -12 1 -19z m-2367 -128 c34 -18
70 -94 70 -150 0 -58 -40 -223 -101 -415 -22 -71 -44 -143 -49 -160 -28 -107
-135 -342 -188 -415 -79 -108 -172 -178 -279 -210 -35 -11 -45 -20 -57 -51 -9
-22 -19 -65 -22 -96 -7 -68 -23 -128 -71 -278 -34 -105 -55 -145 -76 -145 -5
0 -35 -11 -66 -24 -106 -46 -189 -76 -211 -76 -17 0 -20 4 -15 23 18 63 68
225 76 245 5 13 9 30 9 39 0 9 10 30 23 47 29 38 55 106 102 261 20 66 74 237
120 380 46 143 91 285 100 315 9 30 25 81 35 112 10 31 16 66 13 76 -2 11 0
35 5 53 93 317 83 296 161 332 302 137 375 162 421 137z m1396 -28 c-17 -16
-18 -16 -5 5 7 12 15 20 18 17 3 -2 -3 -12 -13 -22z m394 -18 c0 -8 -4 -12
-10 -9 -5 3 -10 10 -10 16 0 5 5 9 10 9 6 0 10 -7 10 -16z m-65 -14 c-11 -5
-27 -9 -35 -9 -9 0 -8 4 5 9 11 5 27 9 35 9 9 0 8 -4 -5 -9z m-364 -38 c-5
-18 -8 -56 -7 -84 3 -40 2 -43 -2 -13 l-6 40 -7 -45 -7 -45 0 55 c0 30 7 72
16 92 19 45 25 44 13 0z m306 32 c-3 -3 -12 -4 -19 -1 -8 3 -5 6 6 6 11 1 17
-2 13 -5z m98 -4 c3 -5 -1 -10 -10 -10 -9 0 -13 5 -10 10 3 6 8 10 10 10 2 0
7 -4 10 -10z m545 -61 c0 -11 -4 -17 -10 -14 -5 3 -10 15 -10 26 0 11 5 17 10
14 6 -3 10 -15 10 -26z m-29 -72 c-10 -9 -11 -8 -5 6 3 10 9 15 12 12 3 -3 0
-11 -7 -18z m-584 -219 c-3 -8 -6 -5 -6 6 -1 11 2 17 5 13 3 -3 4 -12 1 -19z
m-342 -77 c3 -5 1 -12 -5 -16 -5 -3 -10 1 -10 9 0 18 6 21 15 7z m0 -51 c3 -5
1 -10 -4 -10 -6 0 -11 5 -11 10 0 6 2 10 4 10 3 0 8 -4 11 -10z m1202 -112 c0
-13 -1 -18 -4 -11 -3 9 -12 9 -29 2 -44 -16 -50 -9 -9 11 22 11 40 19 40 20 1
0 1 -10 2 -22z m-17 -28 c0 -5 -4 -10 -10 -10 -5 0 -10 5 -10 10 0 6 5 10 10
10 6 0 10 -4 10 -10z m-107 -24 c-10 -13 -21 -22 -25 -19 -5 2 -8 -3 -8 -12 0
-13 -7 -15 -37 -10 -36 6 -37 5 -19 -9 22 -18 14 -21 -14 -6 -13 7 -31 5 -61
-5 -53 -19 -61 -14 -11 7 81 33 101 40 111 33 6 -3 11 0 11 7 0 8 12 19 28 25
41 16 44 15 25 -11z m193 -14 c-9 -8 -26 10 -26 26 1 15 2 15 15 -2 8 -11 13
-21 11 -24z m-111 18 c16 -7 14 -8 -12 -7 -17 1 -29 5 -26 10 5 9 12 8 38 -3z
m145 -20 c0 -5 -4 -10 -10 -10 -5 0 -10 5 -10 10 0 6 5 10 10 10 6 0 10 -4 10
-10z m-1303 -42 c-3 -8 -6 -5 -6 6 -1 11 2 17 5 13 3 -3 4 -12 1 -19z m820 -2
c4 -7 15 -16 23 -19 10 -4 8 -6 -6 -6 -12 -1 -24 -8 -28 -16 -3 -8 -10 -15
-16 -15 -6 0 -4 7 4 16 18 17 22 39 6 29 -5 -3 -10 1 -10 9 0 20 16 21 27 2z
m-52 -26 c-11 -12 -16 -30 -13 -48 3 -23 1 -29 -11 -27 -9 2 -20 4 -25 4 -5 1
-2 9 5 18 12 14 9 13 -16 -2 -41 -26 -43 -29 -18 -21 34 11 36 -10 3 -24 -24
-10 -28 -15 -19 -26 9 -11 7 -14 -12 -15 -32 -2 -30 -2 -69 6 -26 4 -31 4 -20
-4 11 -8 6 -10 -20 -5 -28 4 -32 3 -20 -6 12 -9 9 -11 -17 -7 -18 2 -33 1 -33
-3 0 -3 -23 -14 -51 -24 -28 -10 -58 -27 -68 -37 -20 -21 -102 -35 -127 -21
-11 6 0 12 43 21 32 7 72 19 89 26 122 56 163 73 189 79 40 10 185 96 199 119
6 9 15 17 20 17 5 0 1 -9 -9 -20z m212 4 c-3 -3 -12 -4 -19 -1 -8 3 -5 6 6 6
11 1 17 -2 13 -5z m-17 -74 c0 -5 -4 -10 -10 -10 -5 0 -10 5 -10 10 0 6 5 10
10 10 6 0 10 -4 10 -10z m-880 -30 c0 -11 -7 -20 -15 -20 -8 0 -15 9 -15 20 0
11 7 20 15 20 8 0 15 -9 15 -20z m99 -17 c0 -16 -5 -37 -10 -48 -8 -17 -9 -16
-6 7 2 15 0 32 -4 39 -9 15 -3 29 12 29 5 0 9 -12 8 -27z m438 -39 c-3 -3 -12
-4 -19 -1 -8 3 -5 6 6 6 11 1 17 -2 13 -5z m-157 -44 c0 -5 -8 -10 -17 -10
-15 0 -16 2 -3 10 19 12 20 12 20 0z m95 -10 c-3 -5 -11 -10 -16 -10 -6 0 -7
5 -4 10 3 6 11 10 16 10 6 0 7 -4 4 -10z m292 -36 c-3 -3 -12 -4 -19 -1 -8 3
-5 6 6 6 11 1 17 -2 13 -5z m-927 -40 c0 -8 -4 -12 -10 -9 -5 3 -10 10 -10 16
0 5 5 9 10 9 6 0 10 -7 10 -16z m55 -32 c-3 -3 -11 0 -18 7 -9 10 -8 11 6 5
10 -3 15 -9 12 -12z m200 8 c3 -5 1 -10 -4 -10 -6 0 -11 5 -11 10 0 6 2 10 4
10 3 0 8 -4 11 -10z m512 -36 c-3 -3 -12 -4 -19 -1 -8 3 -5 6 6 6 11 1 17 -2
13 -5z m-447 -44 c0 -5 -11 -10 -25 -10 -14 0 -25 -4 -25 -9 0 -5 -9 -11 -20
-14 -14 -4 -20 0 -20 12 0 10 3 21 7 24 10 11 83 8 83 -3z m-214 -182 c-1 -13
-9 -24 -19 -26 -15 -3 -18 11 -8 46 1 1 7 2 15 2 7 0 13 -10 12 -22z m-759
-133 c-9 -8 -18 -11 -22 -6 -3 6 3 14 12 20 24 13 29 6 10 -14z m-117 -9 c0
-2 -9 -6 -20 -9 -11 -3 -20 -1 -20 4 0 5 9 9 20 9 11 0 20 -2 20 -4z m237 -12
c-3 -3 -12 -4 -19 -1 -8 3 -5 6 6 6 11 1 17 -2 13 -5z m-287 -13 c0 -5 -14
-12 -30 -16 -17 -4 -43 -13 -58 -20 -54 -26 -76 -25 -27 1 28 15 64 31 80 35
17 4 31 7 33 8 1 1 2 -3 2 -8z m260 -38 c0 -17 7 -22 33 -25 l32 -4 -27 -8
c-36 -10 -58 11 -58 56 0 25 3 29 10 18 5 -8 10 -25 10 -37z m395 -235 c3
-106 5 -240 3 -297 l-3 -104 -37 -13 c-20 -7 -53 -20 -73 -30 -20 -9 -39 -14
-42 -10 -4 4 -7 25 -7 46 0 36 -2 40 -20 34 -56 -16 -136 -58 -136 -71 0 -7
-9 -32 -20 -54 -16 -31 -32 -45 -77 -64 -50 -22 -103 -33 -103 -20 0 2 26 60
58 127 33 68 80 168 106 223 26 55 77 161 114 235 l67 135 65 27 c105 43 97
56 105 -164z m-366 -5 c-18 -32 -80 -132 -137 -223 -101 -160 -106 -169 -143
-304 -21 -76 -40 -140 -41 -141 -7 -4 -139 -55 -144 -55 -11 0 4 80 31 175 28
95 28 127 2 220 -47 162 -49 185 -17 202 79 41 122 54 136 42 8 -6 14 -17 14
-25 0 -7 5 -36 11 -64 l11 -51 48 73 c26 41 50 83 54 94 14 45 122 111 184
113 23 1 23 1 -9 -56z m-219 -9 c0 -2 -19 -1 -43 2 -34 5 -52 1 -89 -20 -72
-40 -72 -34 -3 22 6 4 28 12 50 18 31 8 45 7 63 -4 12 -8 22 -16 22 -18z m10
-57 c0 -5 -4 -5 -10 -2 -5 3 -10 14 -10 23 0 15 2 15 10 2 5 -8 10 -19 10 -23z
m239 1 c-11 -7 -11 -11 -1 -15 18 -7 15 -26 -4 -19 -10 4 -13 2 -8 -6 4 -6 -1
-17 -11 -24 -10 -8 -15 -20 -11 -29 3 -9 -7 -36 -24 -63 -16 -27 -42 -74 -57
-106 -44 -90 -47 -96 -56 -96 -4 0 -6 -4 -3 -8 3 -5 -14 -48 -38 -96 -46 -93
-62 -96 -40 -6 30 123 55 180 124 289 19 30 35 57 35 60 0 17 46 81 55 76 6
-4 10 6 10 24 0 16 6 31 13 34 19 7 31 -4 16 -15z m-454 2 c-3 -5 -13 -10 -21
-10 -8 0 -12 5 -9 10 3 6 13 10 21 10 8 0 12 -4 9 -10z m-110 -201 c-14 -52
-43 -157 -65 -234 -22 -77 -50 -178 -62 -224 l-22 -84 -53 -23 c-30 -13 -62
-24 -73 -24 -21 0 -22 3 -63 163 l-23 89 -40 -163 -39 -162 -62 -29 c-35 -15
-65 -28 -69 -28 -10 0 3 77 29 175 45 163 99 369 111 420 10 47 14 52 65 78
91 46 92 45 125 -94 17 -69 32 -115 37 -107 3 7 16 49 27 93 46 178 52 199 60
207 17 17 127 57 135 49 4 -4 -4 -50 -18 -102z m-200 51 c3 -5 1 -10 -4 -10
-6 0 -11 5 -11 10 0 6 2 10 4 10 3 0 8 -4 11 -10z m246 -255 c1 -22 -2 -56 -8
-75 -6 -19 -14 -56 -18 -82 -3 -26 -11 -51 -17 -54 -8 -5 -9 -1 -5 9 9 23 -3
78 -15 71 -6 -4 -8 -21 -5 -38 5 -27 5 -28 -5 -9 -8 16 -5 36 11 85 11 34 19
48 16 31 -2 -18 0 -33 5 -33 6 0 10 16 10 36 0 20 4 33 10 29 6 -3 7 1 4 9 -3
9 -10 13 -15 10 -5 -3 -9 0 -9 5 0 6 5 11 11 11 6 0 8 7 5 16 -3 9 -3 20 0 26
11 17 22 -5 25 -47z m-654 -37 c-4 -46 -7 -176 -7 -289 l0 -206 -27 -12 c-29
-13 -112 -41 -125 -41 -4 0 -8 20 -10 44 l-3 43 -68 -26 c-65 -25 -70 -29
-100 -85 -34 -63 -36 -65 -109 -89 -30 -10 -50 -12 -54 -6 -7 13 317 664 346
693 16 16 112 54 139 55 24 1 24 1 18 -81z m-371 -75 c-2 -10 -30 -103 -61
-208 -72 -240 -70 -234 -97 -332 l-22 -82 -69 -26 c-37 -15 -70 -25 -73 -22
-3 2 11 58 30 123 19 65 33 120 32 121 -5 5 -110 -39 -123 -51 -6 -6 -25 -63
-43 -126 -34 -125 -46 -145 -91 -154 -99 -20 -91 -21 -83 10 4 16 28 101 55
189 27 88 65 217 86 287 l36 127 50 20 c64 27 102 28 92 4 -4 -10 -16 -45 -25
-78 -10 -33 -21 -68 -25 -77 -10 -24 10 -23 74 3 l51 22 25 86 c36 123 43 133
105 158 67 27 83 28 76 6z m970 -210 c-11 -11 -17 4 -9 23 7 18 8 18 11 1 2
-10 1 -21 -2 -24z m84 -19 c0 -2 -7 -4 -15 -4 -8 0 -15 4 -15 10 0 5 7 7 15 4
8 -4 15 -8 15 -10z m130 -24 c0 -5 -4 -10 -10 -10 -5 0 -10 5 -10 10 0 6 5 10
10 10 6 0 10 -4 10 -10z m-350 -25 c-7 -9 -15 -13 -19 -10 -3 3 1 10 9 15 21
14 24 12 10 -5z m11514 -1550 c4 -10 -1 -15 -14 -15 -13 0 -18 5 -14 15 4 8
10 15 14 15 4 0 10 -7 14 -15z m-2944 -4835 c0 -5 -5 -10 -11 -10 -5 0 -7 5
-4 10 3 6 8 10 11 10 2 0 4 -4 4 -10z m557 -306 c-3 -3 -12 -4 -19 -1 -8 3 -5
6 6 6 11 1 17 -2 13 -5z m-13200 -80 c-3 -3 -12 -4 -19 -1 -8 3 -5 6 6 6 11 1
17 -2 13 -5z m6486 -1035 c-4 -4 -6 13 -3 39 l5 47 3 -39 c2 -21 0 -42 -5 -47z
m-5926 -381 c-2 -13 -4 -3 -4 22 0 25 2 35 4 23 2 -13 2 -33 0 -45z"/>
<path d="M9681 15103 c-12 -47 -51 -286 -47 -290 1 -2 21 10 43 26 60 43 77
88 78 201 l0 95 -32 3 c-29 3 -33 0 -42 -35z"/>
<path d="M9596 14437 c-33 -14 -41 -43 -71 -247 -9 -58 -19 -116 -22 -129 -5
-20 -3 -22 13 -13 86 47 134 191 125 375 -1 30 -4 31 -45 14z"/>
<path d="M12120 14575 c-14 -8 -20 -14 -15 -14 6 0 21 6 35 14 14 8 21 14 15
14 -5 0 -21 -6 -35 -14z"/>
<path d="M12180 14556 c0 -9 5 -16 10 -16 6 0 10 4 10 9 0 6 -4 13 -10 16 -5
3 -10 -1 -10 -9z"/>
<path d="M12130 14550 c-8 -5 -10 -10 -5 -10 6 0 17 5 25 10 8 5 11 10 5 10
-5 0 -17 -5 -25 -10z"/>
<path d="M11977 14534 c-8 -8 3 -34 14 -34 5 0 9 9 9 20 0 19 -11 26 -23 14z"/>
<path d="M11805 14520 c-4 -6 11 -10 41 -10 54 0 55 4 2 14 -21 4 -39 2 -43
-4z"/>
<path d="M11920 14499 c0 -18 2 -19 15 -9 15 12 12 30 -6 30 -5 0 -9 -10 -9
-21z"/>
<path d="M12240 14500 c0 -17 7 -20 40 -20 33 0 40 3 40 20 0 17 -7 20 -40 20
-33 0 -40 -3 -40 -20z"/>
<path d="M11730 14470 c8 -5 20 -10 25 -10 6 0 3 5 -5 10 -8 5 -19 10 -25 10
-5 0 -3 -5 5 -10z"/>
<path d="M12202 14449 c2 -6 8 -10 13 -10 5 0 11 4 13 10 2 6 -4 11 -13 11 -9
0 -15 -5 -13 -11z"/>
<path d="M11655 14420 c3 -5 8 -10 11 -10 2 0 4 5 4 10 0 6 -5 10 -11 10 -5 0
-7 -4 -4 -10z"/>
<path d="M12338 14413 c7 -3 16 -2 19 1 4 3 -2 6 -13 5 -11 0 -14 -3 -6 -6z"/>
<path d="M12237 14383 c-12 -11 -8 -23 7 -23 7 0 19 7 26 15 10 12 9 15 -7 15
-11 0 -23 -3 -26 -7z"/>
<path d="M12175 14370 c-3 -5 1 -10 10 -10 9 0 13 5 10 10 -3 6 -8 10 -10 10
-2 0 -7 -4 -10 -10z"/>
<path d="M10380 13670 c0 -5 5 -10 11 -10 5 0 7 5 4 10 -3 6 -8 10 -11 10 -2
0 -4 -4 -4 -10z"/>
<path d="M12578 13663 c7 -3 16 -2 19 1 4 3 -2 6 -13 5 -11 0 -14 -3 -6 -6z"/>
<path d="M13238 13663 c7 -3 16 -2 19 1 4 3 -2 6 -13 5 -11 0 -14 -3 -6 -6z"/>
<path d="M10415 13650 c3 -5 13 -10 21 -10 8 0 12 5 9 10 -3 6 -13 10 -21 10
-8 0 -12 -4 -9 -10z"/>
<path d="M10468 13653 c7 -3 16 -2 19 1 4 3 -2 6 -13 5 -11 0 -14 -3 -6 -6z"/>
<path d="M10381 13631 c-9 -6 -10 -11 -2 -15 13 -8 31 1 31 15 0 11 -11 11
-29 0z"/>
<path d="M9740 13615 c7 -9 15 -13 17 -11 7 7 -7 26 -19 26 -6 0 -6 -6 2 -15z"/>
<path d="M13103 13620 c-30 -12 -29 -18 2 -12 14 2 25 8 25 13 0 5 -1 9 -2 8
-2 0 -13 -4 -25 -9z"/>
<path d="M12396 13584 c-20 -20 -20 -30 0 -38 8 -3 12 -2 9 4 -3 6 -2 10 2 10
5 0 14 9 21 20 10 17 10 20 -2 20 -8 0 -22 -7 -30 -16z"/>
<path d="M12800 13584 c0 -8 5 -12 10 -9 6 3 10 10 10 16 0 5 -4 9 -10 9 -5 0
-10 -7 -10 -16z"/>
<path d="M12640 13554 c0 -15 -10 -34 -22 -44 -26 -21 -20 -35 11 -25 17 5 21
15 21 51 0 24 -2 44 -5 44 -3 0 -5 -12 -5 -26z"/>
<path d="M12945 13560 c-3 -5 -2 -10 4 -10 5 0 13 5 16 10 3 6 2 10 -4 10 -5
0 -13 -4 -16 -10z"/>
<path d="M12280 13550 c0 -5 4 -10 9 -10 6 0 13 5 16 10 3 6 -1 10 -9 10 -9 0
-16 -4 -16 -10z"/>
<path d="M10332 13538 c-6 -6 -8 -16 -6 -23 4 -9 -3 -11 -22 -7 -23 4 -25 2
-19 -17 3 -11 2 -21 -3 -21 -5 0 -9 -11 -9 -25 0 -18 5 -25 18 -25 17 0 18 5
13 40 -4 27 -3 40 5 40 6 0 11 -6 11 -14 0 -8 5 -18 11 -22 7 -4 9 0 5 14 -5
14 -1 27 13 41 14 14 16 21 6 24 -7 3 -17 1 -23 -5z"/>
<path d="M12210 13540 c0 -5 5 -10 10 -10 6 0 10 5 10 10 0 6 -4 10 -10 10 -5
0 -10 -4 -10 -10z"/>
<path d="M12885 13535 c-16 -7 -23 -14 -15 -14 8 0 26 6 40 14 32 18 14 18
-25 0z"/>
<path d="M12265 13520 c-3 -5 1 -10 9 -10 8 0 18 5 21 10 3 6 -1 10 -9 10 -8
0 -18 -4 -21 -10z"/>
<path d="M12130 13516 c0 -2 7 -7 16 -10 8 -3 12 -2 9 4 -6 10 -25 14 -25 6z"/>
<path d="M9850 13480 c12 -23 21 -25 38 -8 20 20 14 28 -18 28 -28 0 -30 -2
-20 -20z"/>
<path d="M9920 13485 c0 -8 2 -15 4 -15 2 0 6 7 10 15 3 8 1 15 -4 15 -6 0
-10 -7 -10 -15z"/>
<path d="M9960 13470 c0 -21 4 -30 13 -27 6 2 12 14 12 27 0 13 -6 25 -12 28
-9 2 -13 -7 -13 -28z"/>
<path d="M10007 13493 c-4 -3 -7 -16 -7 -28 0 -19 4 -21 28 -17 33 6 45 22 30
39 -11 14 -40 17 -51 6z"/>
<path d="M12542 13480 c-12 -10 -18 -21 -14 -24 5 -3 20 6 32 19 28 29 15 33
-18 5z"/>
<path d="M12730 13470 c-19 -11 -30 -19 -25 -19 6 0 26 8 45 19 19 11 31 19
25 19 -5 0 -26 -8 -45 -19z"/>
<path d="M10111 13462 c-14 -26 -3 -55 16 -48 8 3 19 6 24 6 16 0 10 26 -10
44 -19 17 -20 17 -30 -2z"/>
<path d="M9790 13460 c0 -5 -7 -7 -15 -4 -10 4 -15 0 -15 -15 0 -12 4 -21 9
-21 5 0 11 -10 14 -21 4 -16 10 -20 24 -14 64 27 98 35 129 29 l35 -6 -23 25
c-23 26 -23 26 -44 6 -22 -21 -44 -25 -44 -8 0 5 -4 7 -10 4 -5 -3 -10 -1 -10
4 0 6 -7 11 -15 11 -8 0 -15 5 -15 10 0 6 -4 10 -10 10 -5 0 -10 -4 -10 -10z"/>
<path d="M10203 13453 c-8 -3 -13 -24 -13 -55 0 -42 3 -51 20 -55 19 -5 19 -7
6 -28 -13 -20 -12 -28 9 -81 14 -33 25 -51 25 -41 0 9 5 17 10 17 6 0 10 -5
10 -12 0 -8 3 -9 10 -2 7 7 6 20 -4 40 -14 25 -14 30 -1 37 16 9 21 47 6 47
-18 0 -39 -47 -34 -76 3 -24 2 -26 -7 -12 -12 20 -13 42 -7 151 4 77 1 83 -30
70z"/>
<path d="M13935 13435 c-99 -38 -269 -105 -290 -115 -69 -30 -179 -74 -485
-195 -190 -75 -457 -182 -595 -237 -339 -136 -343 -138 -400 -158 -28 -10
-156 -60 -285 -113 -129 -52 -325 -131 -435 -176 -110 -44 -249 -100 -310
-124 -60 -25 -193 -77 -295 -117 -312 -122 -400 -162 -401 -179 0 -9 -2 -27
-5 -41 -7 -44 -45 -342 -55 -430 -9 -77 -35 -281 -59 -465 -5 -38 -7 -71 -5
-74 5 -4 149 47 355 127 174 67 474 180 575 217 81 29 217 83 270 106 23 10
418 160 670 254 143 53 327 124 590 227 51 20 129 48 200 72 22 8 99 37 170
66 72 28 218 84 325 125 107 41 242 93 300 115 58 23 119 46 136 52 17 6 40
18 51 27 21 16 21 28 32 516 6 275 14 510 17 523 8 27 5 27 -71 -3z m-245
-339 c20 -22 23 -35 23 -108 0 -97 -19 -144 -85 -204 -63 -57 -261 -138 -283
-116 -6 6 4 303 11 339 5 26 55 54 154 89 90 31 150 31 180 0z m-438 -166 c30
-31 30 -31 26 -123 -3 -79 -8 -98 -31 -134 -33 -52 -103 -105 -175 -132 -78
-30 -117 -28 -154 9 -30 30 -30 32 -26 113 8 147 80 235 233 283 66 21 93 17
127 -16z m-484 -146 c59 -12 72 -35 72 -127 0 -65 -5 -92 -24 -132 -43 -93
-170 -175 -270 -175 -37 0 -48 5 -70 31 -21 25 -26 41 -26 88 0 147 70 242
220 299 64 25 59 24 98 16z m-350 -157 c5 -27 -23 -53 -86 -78 -77 -31 -102
-48 -102 -70 0 -24 17 -24 75 1 26 11 58 20 71 20 20 0 24 -5 24 -28 0 -31 0
-31 -112 -81 l-68 -30 0 -53 c0 -74 -16 -99 -72 -117 -27 -8 -50 -12 -53 -9
-11 10 17 283 31 314 21 44 49 68 124 105 108 53 162 61 168 26z m653 -271
c-17 -28 -19 -39 -11 -61 13 -34 6 -43 -21 -27 -22 14 -39 8 -39 -14 0 -8 -9
-14 -20 -14 -22 0 -22 11 -4 98 5 25 24 30 24 7 0 -22 9 -19 40 15 38 41 57
39 31 -4z m-142 -47 c-20 -16 -22 -20 -9 -28 12 -8 12 -12 -3 -29 -19 -20 -23
-37 -7 -27 6 3 15 3 21 -1 7 -4 -2 -13 -21 -22 -45 -22 -66 -7 -62 44 5 46 16
63 57 80 39 16 54 6 24 -17z m-98 -40 c-2 -8 -3 -29 -2 -48 1 -42 -13 -61 -45
-61 -24 0 -24 1 -8 25 10 15 14 34 10 49 -4 16 0 30 10 41 19 18 41 14 35 -6z
m-1448 -59 c34 -27 42 -73 27 -157 -18 -105 -60 -159 -172 -220 -73 -40 -131
-44 -173 -11 -28 21 -28 22 -21 111 7 94 18 124 61 176 36 42 77 70 144 97 69
29 101 30 134 4z m1317 -18 c0 -11 -58 -64 -92 -85 -28 -17 -28 -17 -28 8 0
31 21 55 47 55 10 0 27 7 37 15 22 17 36 19 36 7z m-164 -47 c3 -14 1 -39 -6
-55 -34 -82 -144 -78 -118 4 22 68 111 104 124 51z m-160 -49 c-46 -28 -58
-42 -54 -66 4 -25 4 -25 24 7 21 34 37 32 48 -4 14 -44 -93 -71 -118 -30 -24
39 78 148 109 116 7 -8 4 -15 -9 -23z m-1376 -35 c0 -36 -12 -46 -84 -71 -117
-40 -135 -62 -144 -172 -5 -78 5 -90 57 -63 25 13 31 22 31 50 0 57 16 84 62
105 27 12 47 15 53 10 15 -12 -1 -146 -21 -177 -16 -26 -72 -57 -153 -84 -73
-26 -87 -24 -123 12 -30 30 -31 32 -25 106 7 93 42 169 98 214 49 38 184 99
222 99 23 0 27 -4 27 -29z m1167 -58 c-8 -15 -21 -41 -28 -56 l-13 -28 -9 23
c-4 12 -15 31 -24 40 -20 22 -9 36 16 21 15 -10 23 -7 42 13 28 30 36 24 16
-13z m-106 -50 c7 -38 -6 -55 -39 -48 -12 2 -21 1 -21 -3 3 -22 -3 -41 -14
-45 -11 -4 -13 6 -10 46 7 83 70 119 84 50z m-154 -44 c25 -25 -33 -109 -76
-109 -25 0 -28 87 -4 106 22 16 65 18 80 3z m-131 -34 c-10 -8 -24 -16 -29
-18 -12 -4 10 -67 27 -79 12 -8 -39 -22 -52 -14 -14 9 -2 86 17 108 8 10 25
18 36 18 19 -1 19 -1 1 -15z m-88 -85 c-1 -34 -6 -50 -15 -50 -7 0 -13 5 -13
10 0 18 -29 10 -35 -10 -11 -35 -25 -22 -25 24 0 49 24 76 67 76 20 0 22 -5
21 -50z m-108 11 c0 -5 -10 -13 -22 -17 -20 -6 -20 -8 -5 -19 22 -16 21 -24
-8 -60 -26 -32 -30 -27 -25 33 1 12 -4 22 -10 22 -13 0 -32 -45 -34 -80 -1
-18 -7 -25 -23 -25 -12 0 -30 -9 -41 -18 -24 -22 -27 -17 -37 47 -5 38 -4 47
7 43 7 -2 12 -14 11 -26 -2 -11 1 -21 5 -21 23 0 63 29 78 55 24 44 104 95
104 66z m-234 -108 c21 -28 17 -42 -27 -84 -44 -43 -54 -42 -98 5 -28 29 -41
33 -41 11 0 -8 5 -15 10 -15 6 0 10 -7 10 -15 0 -8 -7 -15 -15 -15 -9 0 -15
-9 -15 -21 0 -12 -5 -19 -12 -17 -22 8 -10 90 15 110 28 22 46 23 54 2 5 -15
7 -15 15 1 10 17 66 55 82 55 5 0 15 -8 22 -17z"/>
<path d="M13518 13013 c-21 -9 -39 -23 -42 -32 -8 -29 -18 -201 -11 -201 16 0
82 34 102 52 20 19 23 32 23 94 0 110 -4 115 -72 87z"/>
<path d="M13082 12843 c-44 -21 -61 -57 -64 -138 -2 -54 0 -69 14 -78 22 -14
80 12 103 47 22 34 33 165 14 177 -19 12 -29 11 -67 -8z"/>
<path d="M12664 12683 c-12 -2 -34 -18 -50 -34 -26 -27 -29 -38 -33 -110 -4
-89 5 -101 59 -79 48 20 70 60 77 139 5 61 4 70 -13 78 -11 5 -29 7 -40 6z"/>
<path d="M11233 12115 c-48 -20 -65 -56 -71 -141 -4 -67 -3 -74 14 -75 35 -2
49 3 76 28 43 41 67 184 32 197 -9 3 -16 6 -17 6 -1 -1 -16 -7 -34 -15z"/>
<path d="M12460 12115 c-14 -17 -5 -48 13 -43 14 5 23 58 9 58 -5 0 -15 -7
-22 -15z"/>
<path d="M11840 11874 c-22 -56 0 -74 33 -28 15 20 16 28 7 39 -18 22 -29 18
-40 -11z"/>
<path d="M11627 11813 c-13 -12 -7 -23 13 -23 11 0 20 7 20 15 0 15 -21 21
-33 8z"/>
<path d="M11277 11654 c-18 -25 -17 -54 2 -54 13 0 51 49 51 66 0 23 -34 15
-53 -12z"/>
<path d="M10160 13410 c0 -5 -7 -7 -15 -4 -8 4 -15 1 -15 -5 0 -6 -8 -11 -17
-11 -13 0 -11 -6 12 -30 22 -23 32 -27 42 -19 15 13 18 79 3 79 -5 0 -10 -4
-10 -10z m-10 -29 c0 -5 3 -18 7 -28 6 -17 6 -17 -10 -1 -19 18 -22 38 -7 38
6 0 10 -4 10 -9z"/>
<path d="M10240 13395 c0 -27 9 -32 27 -14 9 9 8 15 -2 25 -19 20 -25 17 -25
-11z"/>
<path d="M9943 13381 c-118 -36 -238 -113 -360 -233 l-21 -21 -4 28 c-2 22 -9
29 -27 30 -34 3 -97 -17 -167 -53 -76 -39 -114 -72 -114 -100 0 -27 -25 -29
-42 -3 -9 15 -16 17 -29 10 -10 -5 -25 -6 -33 -3 -9 4 -23 0 -32 -7 -8 -7 -47
-26 -87 -43 -93 -40 -122 -80 -137 -186 -16 -112 -32 -180 -42 -180 -5 0 -7 4
-4 9 3 4 -2 61 -12 125 -13 89 -20 117 -33 121 -21 7 -101 -23 -204 -76 -94
-48 -115 -65 -115 -93 0 -12 -6 -33 -14 -47 -7 -14 -16 -38 -20 -54 -4 -16
-18 -52 -31 -80 -58 -125 -75 -167 -75 -183 0 -10 -4 -22 -9 -27 -5 -6 -30
-59 -56 -120 -25 -60 -60 -142 -76 -182 -17 -39 -28 -76 -24 -82 17 -29 141 6
230 65 43 29 95 87 95 106 0 4 14 20 30 36 l30 30 0 -27 c0 -35 28 -74 49 -68
9 3 65 26 125 51 60 25 113 46 117 46 4 0 42 16 83 35 42 19 80 35 84 35 4 0
30 22 56 50 45 47 72 58 59 25 -6 -18 0 -18 46 -4 147 47 261 111 261 146 0 8
7 25 16 39 15 21 19 23 33 11 59 -51 253 -5 393 94 14 11 30 19 35 19 4 0 26
19 49 43 22 23 46 42 52 43 27 2 32 5 32 15 0 8 -5 8 -15 -1 -26 -21 -17 -4
24 45 36 44 40 55 55 154 8 58 18 138 20 176 3 39 8 104 12 145 l6 75 -39 38
c-49 47 -87 53 -170 28z m64 -67 c29 -8 63 -63 63 -102 0 -25 -6 -35 -32 -48
-18 -9 -54 -32 -81 -50 -26 -19 -49 -34 -51 -34 -2 0 -6 8 -9 19 -5 20 -44 31
-73 20 -37 -14 -93 -79 -113 -133 -11 -31 -23 -91 -27 -135 -8 -90 1 -111 45
-111 48 0 151 76 151 112 0 22 1 22 -43 3 -59 -24 -61 -23 -53 52 4 37 12 73
17 80 6 6 50 27 97 46 48 19 104 42 125 51 36 16 37 16 37 -6 0 -12 -7 -79
-16 -147 -18 -142 -19 -144 -122 -234 -70 -61 -112 -87 -201 -124 -96 -40
-165 -24 -202 48 -19 38 -21 54 -17 143 9 169 77 318 194 425 47 43 83 64 204
118 28 13 74 16 107 7z m-527 -223 c0 -51 -98 -643 -108 -652 -10 -9 -140 -59
-152 -59 -6 0 -38 57 -72 128 l-62 127 -18 -100 c-9 -55 -21 -129 -24 -164 -6
-55 -11 -65 -35 -80 -37 -23 -137 -57 -144 -49 -3 3 11 97 30 209 20 112 43
247 51 299 24 157 20 150 104 191 41 20 78 35 82 32 4 -2 33 -58 65 -124 44
-92 59 -117 65 -102 4 10 16 77 28 148 25 157 26 161 48 169 9 3 37 14 62 25
58 25 80 26 80 2z m-728 -327 c4 -21 17 -106 28 -189 12 -82 26 -177 31 -210
5 -33 9 -81 9 -106 l0 -47 -82 -35 c-47 -20 -87 -32 -92 -27 -5 5 -9 27 -10
49 0 23 -2 41 -4 41 -2 0 -20 -9 -40 -19 -20 -10 -58 -28 -84 -40 -27 -12 -48
-27 -48 -36 0 -8 -6 -24 -12 -35 -11 -17 -10 -22 2 -30 8 -5 12 -10 8 -10 -19
0 -24 -2 -40 -17 -20 -18 -102 -57 -140 -67 -34 -8 -36 6 -8 66 17 37 155 365
245 581 15 38 35 77 44 88 17 22 160 91 176 85 6 -1 13 -20 17 -42z"/>
<path d="M8604 12523 c-4 -16 -20 -58 -35 -95 -15 -38 -25 -68 -21 -68 24 2
76 38 73 51 -2 8 -3 42 -3 77 2 67 -3 79 -14 35z"/>
<path d="M9227 13376 c-6 -15 1 -26 15 -26 5 0 6 5 3 10 -3 6 3 10 15 10 12 0
18 5 15 10 -9 15 -42 12 -48 -4z"/>
<path d="M9325 13369 c-3 -3 4 -9 15 -12 12 -3 20 0 20 7 0 13 -28 18 -35 5z"/>
<path d="M9197 13349 c7 -7 15 -10 18 -7 3 3 -2 9 -12 12 -14 6 -15 5 -6 -5z"/>
<path d="M9283 13343 c9 -2 23 -2 30 0 6 3 -1 5 -18 5 -16 0 -22 -2 -12 -5z"/>
<path d="M8848 13333 c6 -2 18 -2 25 0 6 3 1 5 -13 5 -14 0 -19 -2 -12 -5z"/>
<path d="M8756 13319 c-12 -38 -12 -69 -1 -69 8 0 10 9 7 25 -4 25 0 28 51 28
9 0 17 4 17 8 0 5 -6 9 -12 9 -7 0 -23 3 -35 6 -15 4 -24 1 -27 -7z"/>
<path d="M10160 13293 c0 -29 2 -29 19 5 10 18 9 22 -4 22 -10 0 -15 -9 -15
-27z"/>
<path d="M8897 13293 c-4 -7 -15 -10 -25 -7 -9 3 -6 -2 8 -10 14 -8 19 -15 13
-16 -7 0 -13 -5 -13 -12 0 -8 6 -7 16 4 9 8 14 24 12 34 -2 13 -6 15 -11 7z"/>
<path d="M9680 13274 c0 -14 3 -14 15 -4 8 7 15 14 15 16 0 2 -7 4 -15 4 -8 0
-15 -7 -15 -16z"/>
<path d="M9013 13273 c9 -2 23 -2 30 0 6 3 -1 5 -18 5 -16 0 -22 -2 -12 -5z"/>
<path d="M12190 13250 c-9 -6 -10 -10 -3 -10 6 0 15 5 18 10 8 12 4 12 -15 0z"/>
<path d="M9626 13234 c-11 -7 -16 -17 -13 -21 4 -4 15 1 24 10 22 21 14 30
-11 11z"/>
<path d="M9495 13220 c-28 -7 -28 -8 -5 -9 14 0 32 4 40 9 17 11 8 11 -35 0z"/>
<path d="M11498 13223 c7 -3 16 -2 19 1 4 3 -2 6 -13 5 -11 0 -14 -3 -6 -6z"/>
<path d="M9558 13213 c7 -3 16 -2 19 1 4 3 -2 6 -13 5 -11 0 -14 -3 -6 -6z"/>
<path d="M8695 13200 c-3 -5 -1 -10 4 -10 6 0 11 5 11 10 0 6 -2 10 -4 10 -3
0 -8 -4 -11 -10z"/>
<path d="M8791 13194 c0 -11 3 -14 6 -6 3 7 2 16 -1 19 -3 4 -6 -2 -5 -13z"/>
<path d="M10211 13183 c5 -33 -2 -44 -28 -41 -15 2 -28 -2 -30 -9 -3 -7 2 -13
11 -13 9 0 16 -8 16 -18 0 -20 33 -56 42 -46 4 3 12 -11 19 -31 11 -29 15 -33
20 -18 19 48 1 118 -22 82 -4 -7 -12 -10 -16 -5 -4 4 0 13 10 20 9 7 17 23 17
35 0 11 5 21 10 21 6 0 10 5 10 11 0 6 -6 9 -12 6 -7 -2 -21 0 -31 5 -9 5 -17
5 -16 1z m49 -138 c0 -14 -2 -25 -4 -25 -2 0 -6 11 -8 25 -3 14 -1 25 3 25 5
0 9 -11 9 -25z"/>
<path d="M10277 13145 c-4 -8 -2 -17 3 -20 6 -4 10 3 10 14 0 25 -6 27 -13 6z"/>
<path d="M11318 13113 c7 -3 16 -2 19 1 4 3 -2 6 -13 5 -11 0 -14 -3 -6 -6z"/>
<path d="M11076 13097 c3 -10 9 -15 12 -12 3 3 0 11 -7 18 -10 9 -11 8 -5 -6z"/>
<path d="M10281 13084 c0 -11 3 -14 6 -6 3 7 2 16 -1 19 -3 4 -6 -2 -5 -13z"/>
<path d="M11040 13060 c0 -5 5 -10 11 -10 5 0 7 5 4 10 -3 6 -8 10 -11 10 -2
0 -4 -4 -4 -10z"/>
<path d="M10155 13019 c-4 -11 -4 -23 -1 -26 3 -4 6 1 6 10 0 8 5 17 12 19 9
3 9 6 1 11 -7 4 -14 -1 -18 -14z"/>
<path d="M10201 12995 c-7 -16 -19 -43 -27 -58 -8 -16 -14 -35 -14 -43 0 -7
-8 -28 -18 -46 -12 -21 -16 -41 -12 -53 7 -20 7 -20 12 0 5 16 6 17 7 3 1 -18
21 -26 21 -10 0 5 6 9 14 9 12 0 10 -6 -5 -25 -15 -20 -17 -27 -7 -34 10 -6
10 -8 1 -8 -7 0 -13 -7 -13 -15 0 -8 7 -15 15 -15 8 0 15 7 15 15 0 8 7 15 16
15 21 0 44 61 39 105 -3 23 -1 34 5 30 5 -3 10 2 10 12 0 10 3 36 5 58 4 30 3
35 -4 20 l-10 -20 -1 20 c-1 15 -3 16 -7 5 -4 -9 -11 0 -18 25 l-12 40 -12
-30z"/>
<path d="M10136 12943 c-11 -59 4 -75 21 -24 8 23 12 48 9 54 -2 7 -5 1 -6
-13 l-2 -25 -7 25 c-7 23 -8 21 -15 -17z"/>
<path d="M10985 12969 c-4 -6 -5 -13 -2 -16 7 -7 27 6 27 18 0 12 -17 12 -25
-2z"/>
<path d="M10850 12960 c12 -8 10 -10 -9 -10 -13 0 -22 -3 -18 -6 3 -4 18 -3
34 0 21 6 24 9 12 17 -7 5 -18 9 -24 9 -5 0 -3 -5 5 -10z"/>
<path d="M10940 12950 c0 -5 5 -10 11 -10 5 0 7 5 4 10 -3 6 -8 10 -11 10 -2
0 -4 -4 -4 -10z"/>
<path d="M10877 12923 c6 -15 83 -18 83 -4 0 5 -20 11 -44 12 -32 3 -42 1 -39
-8z"/>
<path d="M10708 12914 c17 -8 15 -24 -3 -24 -8 0 -15 4 -15 9 0 5 -10 6 -22 3
-21 -5 -19 -7 11 -15 23 -5 43 -5 59 3 29 13 27 15 -13 23 -16 4 -24 4 -17 1z"/>
<path d="M10616 12875 c-4 -11 -15 -15 -33 -13 -31 3 -39 -15 -29 -58 5 -17
13 -24 31 -24 14 0 25 5 25 10 0 6 7 10 15 10 18 0 20 -16 3 -24 -7 -3 -2 -3
11 0 14 4 27 1 33 -7 7 -11 11 -11 15 -1 2 6 11 12 19 12 10 0 14 13 14 44 0
42 -1 44 -36 50 -19 4 -41 9 -48 12 -8 3 -16 -2 -20 -11z m47 -12 c-13 -2 -23
-9 -23 -14 0 -5 -7 -9 -15 -9 -18 0 -20 16 -2 23 6 3 23 5 37 5 23 -1 23 -1 3
-5z m-73 -43 c0 -11 -7 -20 -15 -20 -8 0 -15 9 -15 20 0 11 7 20 15 20 8 0 15
-9 15 -20z"/>
<path d="M10122 12855 c0 -16 2 -22 5 -12 2 9 2 23 0 30 -3 6 -5 -1 -5 -18z"/>
<path d="M10505 12820 c-3 -5 -2 -10 4 -10 5 0 13 5 16 10 3 6 2 10 -4 10 -5
0 -13 -4 -16 -10z"/>
<path d="M10455 12810 c-3 -6 1 -7 9 -4 18 7 21 14 7 14 -6 0 -13 -4 -16 -10z"/>
<path d="M10395 12791 c-6 -11 13 -26 22 -17 4 3 0 6 -8 7 -8 0 -6 4 6 9 16 7
17 9 3 9 -9 1 -19 -3 -23 -8z"/>
<path d="M10800 12790 c0 -5 5 -10 11 -10 5 0 7 5 4 10 -3 6 -8 10 -11 10 -2
0 -4 -4 -4 -10z"/>
<path d="M10065 12750 c-3 -5 -2 -17 3 -26 8 -14 10 -12 10 9 0 29 -3 33 -13
17z"/>
<path d="M10245 12740 c2 -14 5 -28 5 -32 0 -18 30 -6 30 12 0 11 -6 20 -14
20 -8 0 -17 6 -20 13 -4 6 -4 1 -1 -13z"/>
<path d="M10725 12750 c-4 -7 0 -19 9 -28 15 -15 18 -15 26 -2 5 8 8 20 7 25
-5 15 -34 18 -42 5z"/>
<path d="M10316 12734 c-10 -25 -7 -30 14 -30 13 0 19 5 15 14 -3 7 -5 18 -5
23 0 15 -17 10 -24 -7z"/>
<path d="M10531 12741 c-8 -5 -11 -16 -8 -25 5 -11 1 -16 -14 -16 -18 0 -37
-25 -27 -35 2 -2 24 6 49 18 42 20 45 24 36 45 -11 24 -15 26 -36 13z"/>
<path d="M7675 12720 c4 -6 11 -8 16 -5 14 9 11 15 -7 15 -8 0 -12 -5 -9 -10z"/>
<path d="M8374 12711 c-17 -4 -44 -15 -60 -23 -16 -9 -49 -24 -72 -34 -27 -11
-65 -41 -96 -76 l-53 -58 -11 25 c-13 29 -13 29 -72 11 -91 -28 -259 -115
-224 -116 5 0 1 -5 -8 -11 -39 -22 -9 -149 73 -315 6 -12 11 -32 11 -45 1 -34
-20 -167 -34 -211 -12 -41 -4 -86 16 -94 8 -3 38 6 68 19 29 14 73 34 98 44
25 11 64 37 87 59 43 41 51 64 73 224 11 80 44 170 62 170 5 0 6 5 3 10 -3 6
-2 10 3 10 5 0 12 8 15 18 7 21 41 78 90 154 20 31 37 61 37 66 0 5 11 18 25
28 14 10 23 25 20 32 -3 8 4 27 16 43 41 58 12 89 -67 70z m3 -75 c-3 -8 -62
-113 -131 -235 -121 -212 -126 -224 -146 -323 -37 -188 -33 -180 -103 -208
-34 -14 -72 -28 -85 -32 -26 -7 -27 -21 10 175 l20 108 -32 82 c-18 45 -41
100 -51 122 -10 22 -21 54 -25 71 -6 30 -4 31 80 68 48 22 89 36 93 33 7 -7
41 -100 50 -135 6 -26 11 -19 90 128 48 90 49 92 128 127 77 35 110 41 102 19z"/>
<path d="M10375 12690 c3 -5 10 -10 16 -10 5 0 9 5 9 10 0 6 -7 10 -16 10 -8
0 -12 -4 -9 -10z"/>
<path d="M10708 12653 c7 -3 16 -2 19 1 4 3 -2 6 -13 5 -11 0 -14 -3 -6 -6z"/>
<path d="M9965 12634 l-30 -14 30 6 c31 6 41 11 34 18 -2 2 -17 -2 -34 -10z"/>
<path d="M10470 12620 c19 -13 30 -13 30 0 0 6 -10 10 -22 10 -19 0 -20 -2 -8
-10z"/>
<path d="M7315 12560 c-4 -6 -10 -8 -15 -5 -4 3 -19 1 -32 -4 -20 -8 -19 -9
12 -8 30 2 79 27 51 27 -5 0 -13 -5 -16 -10z"/>
<path d="M7098 12471 c12 -7 62 -4 62 5 0 2 -17 4 -37 4 -24 0 -33 -3 -25 -9z"/>
<path d="M7180 12460 c20 -13 33 -13 25 0 -3 6 -14 10 -23 10 -15 0 -15 -2 -2
-10z"/>
<path d="M7753 12443 c-15 -5 -17 -23 -4 -23 5 0 11 7 15 15 3 8 4 15 3 14 -1
0 -8 -3 -14 -6z"/>
<path d="M6975 12420 c3 -5 13 -10 21 -10 8 0 14 5 14 10 0 6 -9 10 -21 10
-11 0 -17 -4 -14 -10z"/>
<path d="M6915 12405 c-25 -12 -26 -14 -5 -9 28 7 60 23 45 23 -5 0 -23 -6
-40 -14z"/>
<path d="M7674 12379 c-1 -26 2 -36 7 -28 7 12 9 11 9 0 0 -20 16 -3 25 27 5
18 2 22 -13 22 -11 0 -22 5 -24 10 -2 6 -4 -8 -4 -31z"/>
<path d="M6958 12393 c6 -2 18 -2 25 0 6 3 1 5 -13 5 -14 0 -19 -2 -12 -5z"/>
<path d="M7052 12391 c-11 -7 -11 -9 2 -14 10 -4 16 -1 16 8 0 17 -1 17 -18 6z"/>
<path d="M7645 12370 c2 -27 15 -38 15 -12 0 11 -4 23 -8 26 -5 3 -8 -4 -7
-14z"/>
<path d="M6850 12371 c0 -10 19 -25 25 -20 1 2 -3 10 -11 17 -8 7 -14 8 -14 3z"/>
<path d="M7280 12369 c0 -5 5 -7 10 -4 6 3 10 8 10 11 0 2 -4 4 -10 4 -5 0
-10 -5 -10 -11z"/>
<path d="M7505 12344 c-44 -19 -97 -42 -117 -51 -21 -8 -38 -21 -38 -28 0 -18
-37 -48 -44 -36 -4 5 2 14 11 20 17 10 17 10 0 11 -18 0 -136 -46 -245 -96
-29 -13 -55 -24 -58 -24 -3 0 -20 -6 -37 -14 -18 -8 -68 -29 -112 -46 -143
-56 -286 -123 -312 -146 -29 -25 -76 -38 -70 -20 2 6 13 12 24 14 11 2 30 14
42 26 19 20 20 24 6 30 -9 3 -14 2 -10 -3 3 -5 -19 -8 -50 -6 -59 4 -64 1 -39
-26 14 -16 14 -19 -3 -38 -9 -12 -26 -21 -36 -21 -17 0 -90 -28 -129 -50 -10
-6 -23 -10 -30 -10 -6 0 -33 -18 -59 -40 -26 -22 -53 -40 -59 -40 -6 0 -8 -4
-5 -10 3 -5 -6 -35 -21 -67 -15 -32 -34 -78 -43 -102 -25 -67 -41 -64 -41 6 0
50 -4 63 -25 83 -42 39 -97 32 -212 -26 -104 -52 -212 -146 -247 -214 -53
-104 -79 -227 -56 -269 7 -14 4 -24 -10 -41 l-20 -23 -8 24 -9 23 -5 -27 c-3
-14 -1 -24 3 -21 5 3 9 1 9 -5 0 -5 -7 -14 -15 -19 -24 -13 -31 -55 -27 -164
2 -54 4 -59 34 -74 28 -15 41 -15 97 -5 36 7 85 22 110 33 25 12 51 21 58 21
7 0 10 3 8 7 -3 4 16 20 40 36 25 15 45 30 45 33 0 4 23 7 51 8 27 0 74 11
102 23 61 26 147 89 147 107 0 7 5 13 10 13 6 0 10 -5 10 -11 0 -5 5 -7 10 -4
6 4 8 11 5 16 -4 5 3 9 13 9 11 0 22 -7 26 -15 7 -19 40 -19 55 -1 7 8 55 31
107 51 53 21 98 43 101 51 3 7 13 16 23 19 10 3 17 12 16 20 0 7 4 13 9 12 6
-1 10 -9 10 -17 1 -9 7 -13 15 -10 8 2 38 4 65 3 32 -1 43 2 30 6 -18 7 -17
10 13 25 18 9 38 14 44 10 7 -5 8 -3 3 6 -6 10 -4 11 11 6 32 -14 76 -17 68
-5 -3 6 -12 8 -18 6 -7 -3 -19 -1 -27 3 -10 7 -8 11 11 18 52 20 78 57 99 138
27 106 61 249 71 304 12 63 19 77 41 83 26 7 28 0 18 -58 -5 -27 -13 -92 -19
-144 -8 -79 -7 -99 6 -127 9 -19 20 -34 25 -34 5 0 9 -4 9 -10 0 -5 -8 -6 -17
-3 -16 6 -16 5 -4 -11 8 -9 17 -13 20 -9 10 14 81 14 81 0 0 -9 2 -9 8 0 4 6
36 19 72 28 103 27 200 93 286 197 41 49 74 93 74 98 0 5 6 15 13 22 35 37 61
138 120 466 10 58 26 83 28 45 0 -12 2 -13 6 -5 3 7 0 19 -7 27 -6 8 -10 26
-8 41 5 41 -32 40 -127 -2z m55 -45 c0 -38 -86 -434 -105 -485 -59 -156 -167
-257 -322 -300 -74 -20 -102 -13 -134 38 -17 28 -19 43 -14 103 3 39 10 84 15
100 4 17 23 101 41 189 37 177 32 169 136 212 42 17 59 20 61 11 1 -7 -16
-100 -38 -207 -47 -229 -49 -260 -18 -260 38 0 96 48 113 94 8 22 31 120 50
216 52 255 40 230 126 267 82 36 89 38 89 22z m-550 -312 l-13 -68 -66 -29
c-36 -17 -72 -34 -80 -38 -14 -8 -25 -47 -56 -207 -8 -44 -26 -127 -38 -185
l-23 -105 -70 -27 c-38 -15 -75 -27 -81 -27 -21 -1 -22 -9 59 359 11 52 23
100 25 107 3 7 -20 2 -57 -13 -80 -32 -91 -28 -79 28 28 125 7 106 217 193
103 42 205 85 227 94 50 22 53 15 35 -82z m-480 -33 c0 -8 -4 -12 -10 -9 -5 3
-10 10 -10 16 0 5 5 9 10 9 6 0 10 -7 10 -16z m-29 -76 c-15 -39 -41 -84 -42
-73 0 6 -2 28 -4 50 -2 22 -1 32 2 23 6 -23 15 -23 31 2 16 27 24 25 13 -2z
m-104 -362 c9 -157 14 -289 11 -292 -8 -7 -148 -64 -159 -64 -5 0 -9 21 -9 46
0 52 -2 52 -99 5 -48 -23 -56 -32 -76 -81 -22 -52 -27 -57 -86 -82 -60 -26
-99 -35 -99 -23 0 8 43 108 83 195 19 41 46 100 60 130 13 30 40 89 59 130 19
41 55 119 79 174 27 61 52 101 64 107 11 4 47 19 80 33 33 14 64 21 68 17 5
-5 15 -137 24 -295z m175 152 c6 -17 -54 -297 -72 -339 -7 -18 -8 -6 -4 46 4
50 2 66 -5 55 -10 -14 -11 -10 -11 65 0 3 3 6 7 8 4 1 11 -11 14 -28 7 -34 13
-24 28 45 15 65 14 140 -1 141 -7 0 -4 4 7 9 28 12 33 12 37 -2z m-80 -36 c-7
-2 -12 -23 -12 -54 0 -65 -6 -59 -14 14 -7 55 -7 56 16 50 12 -3 17 -7 10 -10z
m-553 -36 c18 -19 22 -33 19 -77 l-3 -54 -63 -33 c-66 -35 -92 -36 -92 -3 0
11 -4 22 -9 25 -14 9 -76 -38 -79 -61 -3 -19 1 -20 72 -19 61 1 79 -3 103 -20
70 -52 24 -233 -91 -349 -110 -111 -258 -159 -305 -99 -24 31 -30 134 -8 152
27 23 132 71 138 64 4 -4 9 -20 11 -37 4 -41 37 -45 77 -8 20 19 32 39 33 61
l3 33 -76 2 c-45 1 -83 8 -92 15 -62 52 -27 199 72 305 49 52 83 76 150 103
73 31 111 30 140 0z m51 -166 c0 -5 -5 -10 -11 -10 -5 0 -7 5 -4 10 3 6 8 10
11 10 2 0 4 -4 4 -10z m173 -283 c-3 -14 -12 -23 -24 -24 -11 -1 -18 1 -16 5
2 4 7 15 10 25 10 26 35 22 30 -6z"/>
<path d="M6230 11546 c0 -8 -13 -46 -30 -84 -16 -39 -30 -75 -30 -81 0 -6 16
-1 35 10 34 20 35 23 35 79 0 32 3 65 6 74 3 9 1 16 -5 16 -6 0 -11 -6 -11
-14z"/>
<path d="M6810 12341 c-8 -5 -33 -12 -54 -16 -29 -5 -36 -9 -25 -16 8 -5 21
-9 29 -9 13 0 13 1 0 11 -12 9 -10 10 8 6 20 -5 82 17 82 29 0 7 -24 4 -40 -5z"/>
<path d="M7717 12323 c5 -23 33 -32 33 -11 0 6 -3 8 -7 5 -3 -4 -12 1 -19 11
-12 15 -12 15 -7 -5z"/>
<path d="M7310 12320 c0 -5 4 -10 9 -10 6 0 13 5 16 10 3 6 -1 10 -9 10 -9 0
-16 -4 -16 -10z"/>
<path d="M6860 12310 c0 -5 5 -10 10 -10 6 0 10 5 10 10 0 6 -4 10 -10 10 -5
0 -10 -4 -10 -10z"/>
<path d="M7660 12309 c0 -5 5 -7 10 -4 6 3 10 8 10 11 0 2 -4 4 -10 4 -5 0
-10 -5 -10 -11z"/>
<path d="M7185 12300 c-4 -6 3 -10 14 -10 25 0 27 6 6 13 -8 4 -17 2 -20 -3z"/>
<path d="M7040 12279 c0 -11 5 -17 10 -14 6 3 10 13 10 21 0 8 -4 14 -10 14
-5 0 -10 -9 -10 -21z"/>
<path d="M7100 12286 c0 -8 5 -18 10 -21 6 -3 10 3 10 14 0 12 -4 21 -10 21
-5 0 -10 -6 -10 -14z"/>
<path d="M7281 12286 c-8 -10 -3 -11 19 -8 35 5 37 8 10 15 -10 3 -24 -1 -29
-7z"/>
<path d="M7680 12274 c0 -11 10 -24 22 -29 21 -10 31 -23 43 -60 7 -19 7 -19
16 4 13 34 1 91 -20 91 -9 0 -26 3 -38 6 -18 5 -23 2 -23 -12z"/>
<path d="M5637 12274 c-4 -4 -7 -14 -7 -23 0 -11 3 -12 11 -4 6 6 10 16 7 23
-2 6 -7 8 -11 4z"/>
<path d="M7200 12270 c0 -6 7 -10 15 -10 8 0 15 2 15 4 0 2 -7 6 -15 10 -8 3
-15 1 -15 -4z"/>
<path d="M7063 12240 c-3 -10 -14 -22 -24 -25 -23 -8 -17 -20 11 -28 17 -4 19
-3 10 8 -8 9 -7 14 4 18 8 3 16 1 19 -6 3 -9 10 -9 30 0 26 12 37 33 17 33 -5
0 -10 -4 -10 -10 0 -18 -18 -10 -23 10 -7 26 -27 26 -34 0z"/>
<path d="M7657 12209 c4 -13 8 -18 11 -10 2 7 -1 18 -6 23 -8 8 -9 4 -5 -13z"/>
<path d="M5500 12180 c0 -22 5 -40 10 -40 6 0 10 18 10 40 0 22 -4 40 -10 40
-5 0 -10 -18 -10 -40z"/>
<path d="M6820 12180 c0 -29 -4 -40 -15 -40 -8 0 -15 -5 -15 -11 0 -5 4 -7 10
-4 6 3 7 -1 4 -9 -3 -9 -1 -16 5 -16 6 0 11 5 11 11 0 7 10 9 25 5 17 -4 25
-2 25 6 0 9 4 8 11 -2 9 -13 10 -13 6 0 -2 9 -13 14 -28 12 -19 -2 -21 -1 -9
7 13 9 13 11 -2 11 -10 0 -18 7 -18 15 0 8 7 15 15 15 8 0 15 5 15 10 0 23 17
8 29 -26 9 -24 18 -34 29 -32 23 5 21 33 -2 33 -10 0 -20 8 -22 18 -2 15 7 22
29 18 4 0 7 3 7 8 0 4 -25 9 -55 10 l-55 1 0 -40z"/>
<path d="M6988 12213 c7 -3 16 -2 19 1 4 3 -2 6 -13 5 -11 0 -14 -3 -6 -6z"/>
<path d="M7687 12203 c4 -10 13 -29 21 -43 14 -25 14 -25 8 9 -3 18 -6 37 -6
42 0 5 -7 9 -15 9 -10 0 -12 -6 -8 -17z"/>
<path d="M7774 12185 c-3 -19 -10 -33 -14 -30 -4 2 -5 -6 -3 -20 5 -23 27 -40
42 -30 5 2 8 18 9 36 1 28 0 30 -13 13 -20 -28 -25 -14 -10 29 7 20 9 37 4 37
-4 0 -11 -16 -15 -35z"/>
<path d="M7630 12200 c0 -5 5 -10 10 -10 6 0 10 5 10 10 0 6 -4 10 -10 10 -5
0 -10 -4 -10 -10z"/>
<path d="M6947 12183 c-11 -11 -8 -21 9 -27 17 -6 44 9 44 25 0 10 -44 12 -53
2z"/>
<path d="M7671 12124 c0 -11 3 -14 6 -6 3 7 2 16 -1 19 -3 4 -6 -2 -5 -13z"/>
<path d="M7721 12104 c0 -11 3 -14 6 -6 3 7 2 16 -1 19 -3 4 -6 -2 -5 -13z"/>
<path d="M5387 12069 c-3 -10 -2 -20 1 -23 7 -8 32 14 32 29 0 19 -28 14 -33
-6z"/>
<path d="M7621 12074 c0 -11 3 -14 6 -6 3 7 2 16 -1 19 -3 4 -6 -2 -5 -13z"/>
<path d="M6670 12050 c-8 -5 -10 -10 -5 -10 6 0 17 5 25 10 8 5 11 10 5 10 -5
0 -17 -5 -25 -10z"/>
<path d="M7672 12030 c0 -14 2 -19 5 -12 2 6 2 18 0 25 -3 6 -5 1 -5 -13z"/>
<path d="M7672 11955 c0 -16 2 -22 5 -12 2 9 2 23 0 30 -3 6 -5 -1 -5 -18z"/>
<path d="M7580 11945 c-2 -11 -3 -26 -3 -32 1 -7 -3 -13 -7 -13 -5 0 -3 -11 3
-24 10 -21 13 -22 18 -8 4 10 3 35 -1 57 -4 23 -9 31 -10 20z"/>
<path d="M9613 11839 c-80 -13 -313 -98 -313 -113 0 -3 10 -1 23 4 12 4 51 20
87 35 219 87 440 91 543 8 16 -13 32 -23 36 -23 16 0 81 -102 92 -145 19 -75
6 -256 -24 -335 -52 -135 -107 -227 -216 -365 -48 -61 -209 -218 -266 -261
-109 -80 -153 -108 -230 -147 -375 -186 -694 -146 -780 99 -30 85 -31 133 -5
254 23 106 83 239 156 346 45 67 152 196 183 221 8 7 12 15 10 18 -9 9 -159
-169 -224 -265 -85 -128 -129 -237 -150 -374 -24 -164 -3 -249 82 -334 75 -74
146 -97 303 -97 118 1 131 3 233 38 240 82 408 189 594 378 238 242 384 534
370 739 -7 102 -21 142 -71 203 -47 58 -101 92 -179 113 -57 15 -173 17 -254
3z"/>
<path d="M5320 11818 c0 -16 5 -28 10 -28 13 0 13 20 0 40 -8 12 -10 9 -10
-12z"/>
<path d="M8088 11833 c7 -3 16 -2 19 1 4 3 -2 6 -13 5 -11 0 -14 -3 -6 -6z"/>
<path d="M5287 11772 c-19 -21 -13 -32 15 -32 21 0 54 27 45 37 -3 3 -13 -2
-22 -11 -9 -9 -21 -13 -27 -10 -6 4 -5 9 3 15 7 4 11 10 8 14 -3 3 -13 -3 -22
-13z"/>
<path d="M5260 11720 c0 -5 5 -10 10 -10 6 0 10 5 10 10 0 6 -4 10 -10 10 -5
0 -10 -4 -10 -10z"/>
<path d="M5870 11704 l-35 -14 35 6 c19 3 39 10 45 15 13 13 -3 10 -45 -7z"/>
<path d="M9161 11646 c-111 -75 -235 -175 -226 -184 2 -3 35 22 72 55 56 49
157 120 269 190 10 6 14 12 8 12 -7 1 -62 -32 -123 -73z"/>
<path d="M5173 11674 c-15 -7 -5 -34 12 -34 14 0 27 25 18 34 -7 7 -13 7 -30
0z"/>
<path d="M5260 11670 c0 -5 5 -10 10 -10 6 0 10 5 10 10 0 6 -4 10 -10 10 -5
0 -10 -4 -10 -10z"/>
<path d="M5687 11649 c7 -7 15 -10 18 -7 3 3 -2 9 -12 12 -14 6 -15 5 -6 -5z"/>
<path d="M6873 11613 c-22 -8 -15 -32 7 -26 11 3 20 12 20 19 0 14 -6 16 -27
7z"/>
<path d="M5055 11600 c3 -5 14 -10 23 -10 15 0 15 2 2 10 -20 13 -33 13 -25 0z"/>
<path d="M5175 11590 c-3 -5 1 -10 9 -10 9 0 16 5 16 10 0 6 -4 10 -9 10 -6 0
-13 -4 -16 -10z"/>
<path d="M5603 11568 c-1 -11 1 -16 5 -12 4 5 11 12 15 15 5 3 2 9 -5 12 -9 3
-14 -3 -15 -15z"/>
<path d="M6877 11573 c-4 -3 -7 -13 -7 -22 1 -13 3 -13 11 2 11 19 8 33 -4 20z"/>
<path d="M4905 11540 c3 -5 13 -10 21 -10 8 0 14 5 14 10 0 6 -9 10 -21 10
-11 0 -17 -4 -14 -10z"/>
<path d="M5017 11544 c-15 -15 -6 -24 24 -24 20 0 29 4 27 13 -5 14 -40 21
-51 11z"/>
<path d="M6891 11523 c-1 -17 -5 -34 -10 -38 -5 -3 -12 -19 -16 -35 -4 -17
-11 -30 -17 -30 -6 0 -7 8 -3 18 13 31 25 76 21 79 -1 2 -11 -15 -21 -36 -20
-45 -15 -71 14 -71 11 0 21 -6 24 -12 3 -9 12 -5 27 11 22 22 22 23 3 17 -28
-9 -38 20 -19 49 11 16 12 31 6 51 l-8 29 -1 -32z"/>
<path d="M7295 11520 c-3 -5 1 -10 10 -10 9 0 13 5 10 10 -3 6 -8 10 -10 10
-2 0 -7 -4 -10 -10z"/>
<path d="M4965 11510 c-3 -5 3 -10 14 -10 12 0 21 5 21 10 0 6 -6 10 -14 10
-8 0 -18 -4 -21 -10z"/>
<path d="M5080 11511 c0 -6 9 -11 20 -11 13 0 20 -7 20 -20 0 -25 15 -26 32
-1 7 10 22 21 33 24 14 3 10 5 -11 6 -17 0 -46 4 -63 7 -20 4 -31 3 -31 -5z"/>
<path d="M7260 11510 c-9 -6 -10 -10 -3 -10 6 0 15 5 18 10 8 12 4 12 -15 0z"/>
<path d="M6905 11460 c-3 -5 -1 -10 4 -10 6 0 11 5 11 10 0 6 -2 10 -4 10 -3
0 -8 -4 -11 -10z"/>
<path d="M7178 11453 c7 -3 16 -2 19 1 4 3 -2 6 -13 5 -11 0 -14 -3 -6 -6z"/>
<path d="M7100 11434 c-23 -14 -23 -14 -2 -9 20 6 22 3 22 -30 0 -33 2 -35 21
-25 19 11 19 13 5 29 -9 10 -13 21 -9 24 3 4 0 7 -8 7 -11 0 -11 2 1 10 25 16
-3 11 -30 -6z"/>
<path d="M7158 11433 c7 -3 16 -2 19 1 4 3 -2 6 -13 5 -11 0 -14 -3 -6 -6z"/>
<path d="M5279 11413 c0 -10 -3 -13 -6 -5 -2 6 -9 12 -15 12 -7 0 -6 -5 1 -14
8 -9 21 -12 36 -8 32 9 36 26 8 30 -17 2 -23 -2 -24 -15z"/>
<path d="M5050 11410 c0 -5 9 -10 21 -10 11 0 17 5 14 10 -3 6 -13 10 -21 10
-8 0 -14 -4 -14 -10z"/>
<path d="M5117 11409 c7 -7 15 -10 18 -7 3 3 -2 9 -12 12 -14 6 -15 5 -6 -5z"/>
<path d="M6824 11365 c-10 -8 -14 -14 -9 -15 15 0 40 18 34 24 -3 3 -14 -1
-25 -9z"/>
<path d="M6810 11330 c0 -5 5 -10 10 -10 6 0 10 5 10 10 0 6 -4 10 -10 10 -5
0 -10 -4 -10 -10z"/>
<path d="M6775 11320 c-3 -5 -1 -10 4 -10 6 0 11 5 11 10 0 6 -2 10 -4 10 -3
0 -8 -4 -11 -10z"/>
<path d="M7328 11273 c7 -3 16 -2 19 1 4 3 -2 6 -13 5 -11 0 -14 -3 -6 -6z"/>
<path d="M6935 11250 c3 -5 10 -10 16 -10 5 0 9 5 9 10 0 6 -7 10 -16 10 -8 0
-12 -4 -9 -10z"/>
<path d="M5441 11224 c0 -11 3 -14 6 -6 3 7 2 16 -1 19 -3 4 -6 -2 -5 -13z"/>
<path d="M7180 11220 c-8 -5 -10 -10 -5 -10 6 0 17 5 25 10 8 5 11 10 5 10 -5
0 -17 -5 -25 -10z"/>
<path d="M6571 11191 c-7 -5 -23 -6 -35 -3 -20 4 -20 4 -3 -14 14 -15 19 -16
26 -6 4 7 21 17 37 22 20 6 23 8 9 9 -11 0 -26 -3 -34 -8z"/>
<path d="M6955 11180 c-3 -6 1 -7 9 -4 18 7 21 14 7 14 -6 0 -13 -4 -16 -10z"/>
<path d="M5400 11140 c0 -22 5 -40 10 -40 6 0 10 18 10 40 0 22 -4 40 -10 40
-5 0 -10 -18 -10 -40z"/>
<path d="M5452 11150 c7 -11 16 -20 19 -20 4 0 5 9 2 20 -3 11 -12 20 -19 20
-12 0 -12 -4 -2 -20z"/>
<path d="M6150 11075 c0 -8 3 -14 8 -13 4 1 17 -1 29 -6 15 -5 20 -12 16 -23
-4 -10 -2 -14 6 -12 22 8 15 23 -23 46 -29 19 -36 20 -36 8z"/>
<path d="M6225 11070 c-3 -5 -1 -10 4 -10 6 0 11 5 11 10 0 6 -2 10 -4 10 -3
0 -8 -4 -11 -10z"/>
<path d="M6810 11070 c-8 -5 -10 -10 -5 -10 6 0 17 5 25 10 8 5 11 10 5 10 -5
0 -17 -5 -25 -10z"/>
<path d="M6110 11046 c0 -2 7 -7 16 -10 8 -3 12 -2 9 4 -6 10 -25 14 -25 6z"/>
<path d="M5379 11032 c-12 -5 -14 -13 -8 -27 l8 -20 0 20 c1 17 3 17 11 5 8
-12 10 -11 10 8 0 12 -1 22 -2 21 -2 0 -10 -3 -19 -7z"/>
<path d="M6065 11000 c3 -5 8 -10 11 -10 2 0 4 5 4 10 0 6 -5 10 -11 10 -5 0
-7 -4 -4 -10z"/>
<path d="M6031 10991 c-10 -6 -10 -10 -1 -16 13 -8 24 -1 19 14 -3 6 -10 7
-18 2z"/>
<path d="M5382 10960 c0 -14 2 -19 5 -12 2 6 2 18 0 25 -3 6 -5 1 -5 -13z"/>
<path d="M5361 10958 c-1 -9 -5 -18 -10 -20 -4 -1 0 -12 10 -22 19 -19 19 -19
18 0 0 10 -4 28 -9 39 -7 16 -9 17 -9 3z"/>
<path d="M6070 10950 c-13 -8 -12 -10 3 -10 9 0 17 5 17 10 0 12 -1 12 -20 0z"/>
<path d="M6138 10921 c-19 -7 -12 -24 15 -34 10 -4 17 -2 17 6 0 22 -15 34
-32 28z"/>
<path d="M7937 10916 c-92 -33 -170 -115 -170 -177 0 -43 18 -51 96 -43 64 6
67 5 67 -16 0 -41 -69 -77 -96 -50 -16 16 -99 -30 -99 -54 0 -73 172 -17 250
81 24 30 29 47 30 88 0 49 -1 50 -30 50 -16 -1 -49 -3 -71 -7 -51 -7 -74 4
-58 29 17 28 62 47 79 33 10 -8 22 -5 49 14 20 13 42 27 49 29 8 3 5 10 -8 21
-24 19 -39 19 -88 2z"/>
<path d="M6090 10903 c8 -3 19 -11 23 -17 6 -7 7 -6 4 4 -2 8 -12 16 -23 17
-13 2 -15 1 -4 -4z"/>
<path d="M6250 10850 c-13 -9 -13 -10 0 -10 8 0 22 5 30 10 13 9 13 10 0 10
-8 0 -22 -5 -30 -10z"/>
<path d="M5648 10823 c7 -3 16 -2 19 1 4 3 -2 6 -13 5 -11 0 -14 -3 -6 -6z"/>
<path d="M9015 10810 c-3 -5 -2 -10 4 -10 5 0 13 5 16 10 3 6 2 10 -4 10 -5 0
-13 -4 -16 -10z"/>
<path d="M7661 10796 c-19 -7 -38 -22 -42 -33 -7 -19 -11 -20 -36 -11 -39 15
-103 -18 -143 -73 -62 -86 -83 -217 -40 -251 31 -25 41 -23 101 22 29 22 55
38 57 35 8 -8 -29 -103 -48 -120 -12 -11 -32 -16 -57 -14 -75 5 -93 0 -103
-27 -36 -94 123 -79 222 21 47 48 70 109 98 260 12 66 25 139 29 163 5 23 6
42 2 41 -3 0 -21 -6 -40 -13z m-81 -142 c17 -80 -64 -177 -101 -121 -3 4 -2
30 2 55 6 33 18 55 40 75 36 33 51 31 59 -9z"/>
<path d="M5276 10783 c-6 -14 -5 -15 5 -6 7 7 10 15 7 18 -3 3 -9 -2 -12 -12z"/>
<path d="M5448 10793 c7 -3 16 -2 19 1 4 3 -2 6 -13 5 -11 0 -14 -3 -6 -6z"/>
<path d="M8888 10693 c7 -3 16 -2 19 1 4 3 -2 6 -13 5 -11 0 -14 -3 -6 -6z"/>
<path d="M7212 10614 c-23 -20 -49 -34 -57 -31 -7 3 -32 -1 -54 -10 -45 -17
-38 -1 -81 -221 -12 -62 -19 -116 -16 -119 4 -4 25 2 49 14 l42 20 18 100 c25
135 65 199 104 161 13 -14 13 -27 -6 -118 -12 -57 -19 -105 -17 -108 3 -2 24
6 47 19 l43 24 23 110 c13 61 22 128 21 150 -3 38 -5 40 -38 43 -29 2 -44 -4
-78 -34z"/>
<path d="M6847 10486 c-97 -35 -183 -147 -194 -251 -7 -70 1 -99 31 -113 29
-13 82 2 145 40 36 22 100 86 101 101 0 16 -62 -5 -107 -36 -49 -33 -75 -29
-81 10 -3 17 14 26 106 62 118 45 122 49 122 121 0 73 -41 95 -123 66z m21
-78 c25 -25 13 -45 -40 -67 -40 -17 -53 -19 -60 -9 -12 19 -10 24 18 57 27 32
61 40 82 19z"/>
<path d="M4808 10473 c6 -2 18 -2 25 0 6 3 1 5 -13 5 -14 0 -19 -2 -12 -5z"/>
<path d="M6410 10429 c-19 -12 -37 -23 -39 -25 -2 -2 -11 -40 -20 -86 -10 -46
-30 -143 -46 -215 -16 -73 -26 -136 -22 -139 10 -10 66 17 82 39 11 16 17 18
28 9 23 -20 81 4 125 51 91 99 123 307 47 307 -30 0 -75 -21 -94 -44 -33 -39
-36 -15 -15 92 8 38 1 39 -46 11z m100 -212 c-1 -37 -38 -116 -61 -130 -70
-42 -62 115 8 170 25 20 53 -2 53 -40z"/>
<path d="M4585 10390 c-3 -5 3 -10 15 -10 12 0 18 5 15 10 -3 6 -10 10 -15 10
-5 0 -12 -4 -15 -10z"/>
<path d="M4880 10360 c0 -5 7 -7 15 -4 8 4 15 8 15 10 0 2 -7 4 -15 4 -8 0
-15 -4 -15 -10z"/>
<path d="M4685 10290 c3 -5 13 -10 21 -10 8 0 14 5 14 10 0 6 -9 10 -21 10
-11 0 -17 -4 -14 -10z"/>
<path d="M5887 10100 c-22 -16 -45 -37 -52 -47 -13 -17 -14 -17 -33 0 -19 18
-21 18 -59 -1 -21 -11 -47 -29 -57 -41 -12 -13 -26 -19 -38 -15 -10 3 -34 0
-52 -6 -34 -11 -35 -13 -56 -108 -12 -53 -28 -125 -37 -160 -8 -35 -13 -65
-11 -67 2 -2 21 5 43 15 39 18 39 18 63 121 15 68 32 115 48 136 27 35 32 37
53 24 11 -7 11 -21 -4 -87 -9 -44 -19 -94 -22 -111 l-5 -33 46 16 c39 14 46
20 46 42 0 45 39 186 59 212 10 14 28 27 41 28 22 4 23 2 16 -60 -3 -34 -13
-88 -21 -118 -8 -30 -13 -55 -12 -56 1 -2 22 8 47 20 l45 23 28 138 c15 76 26
144 23 151 -9 23 -59 15 -99 -16z"/>
<path d="M4246 10051 c-4 -5 3 -7 14 -4 23 6 26 13 6 13 -8 0 -17 -4 -20 -9z"/>
<path d="M4190 10029 c0 -5 5 -7 10 -4 6 3 10 8 10 11 0 2 -4 4 -10 4 -5 0
-10 -5 -10 -11z"/>
<path d="M4030 9970 c-13 -9 -13 -10 0 -10 8 0 22 5 30 10 13 9 13 10 0 10 -8
0 -22 -5 -30 -10z"/>
<path d="M3995 9950 c-3 -5 -1 -10 4 -10 6 0 11 5 11 10 0 6 -2 10 -4 10 -3 0
-8 -4 -11 -10z"/>
<path d="M5120 9920 c-22 -11 -37 -28 -42 -46 -8 -32 -3 -43 14 -26 7 7 20 12
30 12 11 0 23 14 33 36 22 52 21 53 -35 24z"/>
<path d="M5335 9894 c-58 -30 -101 -67 -121 -107 -15 -27 -15 -28 13 -21 15 3
39 19 53 34 38 43 69 55 88 36 14 -14 14 -17 -3 -36 -10 -11 -35 -30 -54 -42
-65 -40 -133 -102 -153 -142 -21 -42 -18 -80 7 -90 20 -7 89 27 123 61 20 20
29 23 43 15 12 -8 22 -7 35 3 11 8 27 15 37 15 12 0 17 8 17 28 0 15 9 68 20
118 11 49 20 104 20 122 0 30 -2 32 -37 32 -21 0 -60 -12 -88 -26z m-21 -245
c-40 -41 -68 -49 -78 -23 -6 17 18 54 56 83 38 30 53 31 56 3 3 -18 -7 -35
-34 -63z"/>
<path d="M6120 9831 c-36 -16 -87 -36 -115 -47 -27 -10 -43 -20 -34 -21 12 -3
224 80 238 93 12 11 -32 -1 -89 -25z"/>
<path d="M4903 9790 c-29 -28 -53 -59 -53 -70 0 -11 -9 -24 -19 -29 -10 -6
-24 -25 -30 -42 -14 -40 -14 -39 4 -39 13 0 15 -7 9 -37 -4 -21 -13 -52 -21
-70 -15 -37 -18 -109 -4 -117 17 -11 108 35 120 60 15 34 14 42 -6 40 -39 -3
-1 162 41 182 13 6 28 24 34 41 10 29 10 31 -14 31 -24 0 -25 3 -19 33 4 17 9
40 11 50 3 9 4 17 2 17 -2 0 -27 -23 -55 -50z"/>
<path d="M5089 9790 c-36 -19 -37 -20 -68 -157 -18 -76 -36 -146 -42 -155 -11
-22 1 -23 48 -6 36 13 34 9 72 168 22 94 36 170 30 170 -2 -1 -20 -9 -40 -20z"/>
<path d="M4304 9611 c-39 -14 -42 -18 -57 -75 -8 -34 -34 -132 -58 -218 -23
-87 -40 -160 -37 -163 3 -4 23 2 43 12 30 15 40 27 55 71 9 29 22 58 28 64 17
17 42 1 42 -26 0 -34 10 -56 26 -56 22 0 84 33 84 44 0 6 -8 48 -17 93 l-17
81 26 34 c14 18 35 44 47 57 33 38 25 43 -26 17 -29 -15 -65 -46 -92 -80 -42
-54 -70 -73 -57 -40 3 9 9 28 12 42 3 15 15 56 25 91 11 35 18 65 17 66 -2 0
-22 -6 -44 -14z"/>
<path d="M4023 9396 c-52 -25 -143 -105 -143 -127 0 -21 54 1 89 37 36 36 65
44 74 20 8 -20 -9 -38 -78 -84 -102 -69 -165 -153 -148 -198 10 -28 91 -11
126 26 21 23 33 29 51 24 38 -9 83 20 89 58 2 18 14 71 26 117 28 106 25 145
-9 149 -14 1 -48 -9 -77 -22z m-8 -193 c-11 -45 -54 -95 -78 -91 -39 5 -28 47
21 85 53 41 66 42 57 6z"/>
<path d="M3160 9311 c-63 -22 -149 -54 -190 -71 -41 -18 -117 -47 -168 -66
-127 -46 -200 -95 -264 -174 -46 -58 -71 -110 -91 -185 -21 -81 -84 -302 -98
-345 -36 -106 -26 -134 16 -45 27 55 42 72 32 35 -3 -11 -1 -20 4 -20 5 0 9
10 9 23 1 20 2 19 17 -8 l17 -30 11 70 c16 100 70 278 109 360 18 39 51 89 74
112 46 47 158 123 182 123 9 0 20 4 26 9 5 5 65 30 132 55 145 54 211 60 236
24 22 -31 21 -46 -18 -199 -75 -291 -130 -370 -328 -471 -67 -34 -86 -47 -67
-47 14 -1 31 5 38 12 11 10 13 10 7 0 -5 -9 2 -13 26 -13 25 0 29 -3 18 -10
-25 -16 5 -12 58 8 138 53 227 151 274 302 73 235 113 379 134 475 11 51 11
63 -2 82 -8 13 -20 23 -27 23 -6 0 -21 3 -32 5 -11 3 -72 -12 -135 -34z"/>
<path d="M3740 9279 c-19 -12 -45 -31 -58 -42 -19 -18 -25 -19 -32 -7 -8 12
-14 12 -43 -2 -32 -15 -36 -24 -80 -160 -25 -78 -53 -171 -62 -205 -8 -34 -18
-70 -22 -79 -5 -14 -2 -16 21 -10 46 11 74 36 81 69 20 97 23 102 68 102 26 0
52 8 69 20 83 63 153 249 118 316 -13 24 -17 24 -60 -2z m-26 -127 c-1 -18
-13 -54 -27 -80 -19 -36 -30 -47 -48 -47 -19 0 -25 6 -27 27 -3 29 40 123 60
131 29 12 43 1 42 -31z"/>
<path d="M4565 9244 c-122 -46 -139 -54 -131 -61 3 -3 23 1 43 10 21 9 70 28
108 43 39 14 74 30 80 35 15 14 -4 9 -100 -27z"/>
<path d="M3005 9096 c-306 -112 -345 -140 -393 -276 -23 -65 -58 -199 -67
-255 -6 -36 -5 -38 8 -21 13 18 14 18 20 -4 3 -12 10 -19 15 -16 6 3 8 15 5
26 -3 11 0 20 6 20 6 0 11 -6 11 -14 0 -19 23 -27 41 -14 11 8 11 9 -3 5 -9
-3 -19 1 -22 9 -9 23 -9 23 29 38 39 17 41 22 20 50 -37 49 -6 145 77 232 100
107 201 142 253 89 29 -28 31 -54 10 -116 -39 -110 -170 -226 -269 -236 -43
-5 -56 -10 -67 -29 -14 -27 -13 -29 18 -38 17 -6 22 -4 18 7 -3 7 0 14 7 14 7
0 22 4 32 9 16 6 18 4 13 -9 -7 -20 4 -22 21 -5 7 7 12 9 12 6 0 -11 104 28
146 55 67 42 99 88 132 189 79 241 88 319 33 317 -9 0 -56 -15 -106 -33z m115
-26 c0 -26 -49 -70 -77 -70 -31 0 -30 30 2 64 29 32 75 36 75 6z m-460 -450
c0 -5 -5 -10 -11 -10 -5 0 -7 5 -4 10 3 6 8 10 11 10 2 0 4 -4 4 -10z"/>
<path d="M2870 8903 c-63 -24 -130 -108 -130 -163 0 -45 13 -52 62 -35 87 30
165 134 138 185 -10 19 -38 25 -70 13z"/>
<path d="M3270 8375 c-5 -14 -15 -25 -22 -25 -9 0 -9 -3 0 -12 7 -7 9 -27 5
-55 -5 -38 -4 -43 14 -43 11 0 27 8 34 17 12 15 12 16 -3 10 -22 -8 -22 2 -5
71 8 28 12 54 9 57 -11 11 -23 4 -32 -20z"/>
<path d="M3198 8362 c-15 -21 -48 -36 -48 -22 0 6 -4 10 -10 10 -5 0 -14 -19
-21 -42 -6 -24 -17 -58 -25 -76 -8 -18 -14 -39 -14 -47 0 -21 30 -19 36 3 13
41 55 122 64 122 5 0 8 -6 6 -12 -14 -45 -15 -78 -1 -78 13 0 41 82 43 127 1
30 -14 38 -30 15z"/>
<path d="M2984 8288 c-11 -13 -26 -31 -33 -40 -18 -24 -51 -119 -45 -129 9
-15 35 -10 62 12 l27 21 -29 -8 c-28 -7 -29 -6 -22 22 12 46 50 109 66 109 19
0 15 -50 -6 -83 -13 -20 -13 -24 1 -38 9 -9 23 -13 35 -9 22 7 26 21 8 27 -10
4 -10 16 0 57 7 29 12 59 12 67 0 23 -54 17 -76 -8z"/>
<path d="M2808 8212 c-6 -15 -19 -44 -30 -64 -26 -51 -16 -48 22 7 33 48 56
60 46 23 -3 -13 -9 -40 -12 -60 -6 -34 -4 -38 14 -38 26 0 36 15 23 37 -8 17
-2 45 23 103 5 13 -2 16 -34 17 -36 2 -42 -1 -52 -25z"/>
<path d="M2672 8165 c-26 -22 -58 -81 -77 -142 -5 -19 -2 -23 14 -23 28 0 27
-25 -4 -62 -27 -32 -34 -78 -12 -78 21 0 28 12 16 26 -8 10 -4 25 17 61 31 52
43 42 26 -21 -7 -25 -7 -33 1 -30 14 6 57 94 57 117 0 8 12 29 26 46 20 24 24
35 15 45 -8 10 -8 21 -1 40 5 15 10 32 10 37 0 19 -59 8 -88 -16z m48 -17 c0
-7 -11 -37 -25 -66 -14 -30 -25 -60 -25 -68 0 -16 -26 -8 -34 11 -7 20 11 79
35 109 21 27 49 35 49 14z"/>
<path d="M2400 8149 c0 -6 -14 -24 -32 -41 -29 -27 -30 -31 -15 -40 19 -10 17
-24 -8 -83 -32 -74 -20 -102 30 -75 21 11 22 15 9 27 -18 18 -18 24 0 65 8 18
17 46 21 61 4 19 15 31 34 38 l29 10 -23 25 c-23 25 -45 32 -45 13z"/>
<path d="M2530 8120 c-19 -5 -36 -13 -38 -19 -2 -6 -11 -19 -20 -27 -16 -17
-62 -109 -62 -125 0 -14 63 -11 85 5 11 7 33 16 48 20 22 5 27 11 22 26 -5 17
5 73 22 116 6 15 -4 16 -57 4z m15 -42 c-12 -42 -50 -112 -62 -116 -39 -12
-11 106 30 126 33 16 39 14 32 -10z"/>
<path d="M2246 8008 c-9 -12 -16 -33 -16 -45 0 -13 -4 -23 -8 -23 -5 0 -14
-11 -20 -25 -7 -15 -8 -25 -2 -25 6 0 10 5 10 11 0 18 30 41 45 35 33 -12 -1
-48 -63 -65 -39 -12 -46 4 -27 60 8 23 15 45 15 50 0 19 -33 7 -60 -21 -22
-23 -29 -27 -34 -15 -3 8 -12 15 -20 15 -15 0 -30 -38 -42 -105 -4 -22 -11
-46 -17 -53 -5 -7 -7 -15 -3 -19 11 -11 42 25 66 77 13 28 30 50 38 50 9 0 12
-6 7 -17 -3 -10 -9 -30 -12 -45 -7 -34 13 -37 46 -9 16 14 32 18 54 15 25 -4
40 1 70 26 40 34 42 55 9 93 -12 13 -13 20 -4 29 16 16 15 28 -2 28 -8 0 -22
-10 -30 -22z"/>
<path d="M1991 8006 c-27 -15 -91 -111 -91 -137 0 -10 5 -21 10 -24 10 -6 14
1 24 46 7 30 41 77 50 68 6 -5 -4 -39 -46 -164 -19 -59 -20 -65 -9 -65 16 0
45 63 80 177 17 55 31 104 31 107 0 10 -24 6 -49 -8z"/>
<path d="M7356 13687 c-21 -72 -40 -140 -43 -150 -5 -16 -3 -16 20 -6 22 10
27 23 42 100 18 102 30 189 24 189 -2 0 -21 -60 -43 -133z"/>
<path d="M6805 12690 c-4 -17 -5 -34 -2 -36 3 -3 8 9 12 26 4 17 5 34 2 36 -3
3 -8 -9 -12 -26z"/>
<path d="M4314 12387 c-29 -84 -55 -160 -59 -169 -11 -27 22 -23 39 5 13 22
81 305 74 312 -2 2 -26 -65 -54 -148z"/>
<path d="M3741 12398 c-18 -57 -48 -155 -67 -218 -20 -63 -42 -133 -50 -154
-7 -22 -12 -42 -9 -45 8 -7 65 50 81 81 22 42 124 380 124 411 0 22 -4 27 -24
27 -21 0 -27 -10 -55 -102z"/>
<path d="M6050 12017 c27 -15 36 -14 25 2 -3 6 -16 11 -28 11 -21 0 -21 -1 3
-13z"/>
<path d="M5040 11059 c0 -6 -15 -47 -34 -90 -35 -81 -32 -98 13 -61 18 14 23
30 26 90 2 39 2 72 -1 72 -2 0 -4 -5 -4 -11z"/>
<path d="M4301 10504 c0 -11 3 -14 6 -6 3 7 2 16 -1 19 -3 4 -6 -2 -5 -13z"/>
<path d="M3500 10370 c-22 -46 -40 -87 -40 -92 0 -5 17 1 39 11 38 20 39 21
43 88 3 37 4 70 2 72 -2 2 -21 -34 -44 -79z"/>
<path d="M15418 8773 c7 -3 16 -2 19 1 4 3 -2 6 -13 5 -11 0 -14 -3 -6 -6z"/>
<path d="M15468 8764 c24 -17 39 -14 27 5 -3 6 -16 11 -28 11 l-21 0 22 -16z"/>
<path d="M11600 5116 c0 -9 5 -16 10 -16 6 0 10 4 10 9 0 6 -4 13 -10 16 -5 3
-10 -1 -10 -9z"/>
<path d="M16071 3644 c0 -11 3 -14 6 -6 3 7 2 16 -1 19 -3 4 -6 -2 -5 -13z"/>
<path d="M15680 3490 c0 -5 5 -10 10 -10 6 0 10 5 10 10 0 6 -4 10 -10 10 -5
0 -10 -4 -10 -10z"/>
<path d="M14785 3350 c-3 -5 -1 -10 4 -10 6 0 11 5 11 10 0 6 -2 10 -4 10 -3
0 -8 -4 -11 -10z"/>
<path d="M6546 2241 c-4 -7 -5 -15 -2 -18 9 -9 19 4 14 18 -4 11 -6 11 -12 0z"/>
</g>
</svg>
